error_12_fix_horz_slant.ufo
<glyph name="ety001_cid02702_EL" format="1">
  <advance width="1000"/>
  <outline>
    <contour>
      <point x="469" y="750" type="line"/>
      <point x="238" y="750" type="line"/>
      <point x="224" y="720" type="line"/>
      <point x="469" y="720" type="line"/>
    </contour>
    <contour>
      <point x="459" y="750" type="line"/>
      <point x="452" y="750" type="line"/>
      <point x="452" y="743" type="line"/>
      <point x="427" y="689"/>
      <point x="378" y="616"/>
      <point x="336" y="573" type="curve"/>
      <point x="343" y="571"/>
      <point x="353" y="565"/>
      <point x="359" y="561" type="curve"/>
      <point x="401" y="604"/>
      <point x="453" y="673"/>
      <point x="484" y="738" type="curve"/>
      <point x="465" y="752" type="line"/>
    </contour>
  </outline>
</glyph>
<glyph name="ety002_cid03201_EL" format="1">
  <advance width="1000"/>
  <outline>
    <contour>
      <point x="362" y="617" type="line"/>
      <point x="61" y="617" type="line"/>
      <point x="61" y="587" type="line"/>
      <point x="362" y="587" type="line"/>
    </contour>
    <contour>
      <point x="342" y="617" type="line"/>
      <point x="336" y="617" type="line"/>
      <point x="336" y="608" type="line"/>
      <point x="312" y="247"/>
      <point x="204" y="55"/>
      <point x="48" y="-30" type="curve"/>
      <point x="57" y="-36"/>
      <point x="66" y="-48"/>
      <point x="70" y="-55" type="curve"/>
      <point x="232" y="39"/>
      <point x="340" y="232"/>
      <point x="367" y="614" type="curve"/>
      <point x="348" y="619" type="line"/>
    </contour>
  </outline>
</glyph>
<glyph name="ety003_cid03246_EL" format="1">
  <advance width="1000"/>
  <outline>
    <contour>
      <point x="342" y="619" type="line"/>
      <point x="49" y="619" type="line"/>
      <point x="49" y="589" type="line"/>
      <point x="342" y="589" type="line"/>
    </contour>
    <contour>
      <point x="329" y="619" type="line"/>
      <point x="324" y="619" type="line"/>
      <point x="324" y="610" type="line"/>
      <point x="299" y="248"/>
      <point x="196" y="44"/>
      <point x="51" y="-45" type="curve"/>
      <point x="59" y="-51"/>
      <point x="68" y="-63"/>
      <point x="72" y="-69" type="curve"/>
      <point x="223" y="30"/>
      <point x="326" y="234"/>
      <point x="352" y="616" type="curve"/>
      <point x="334" y="621" type="line"/>
    </contour>
  </outline>
</glyph>
<glyph name="ety004_cid03268_H" format="1">
  <advance width="1000"/>
  <outline>
    <contour>
      <point x="307" y="660" type="line"/>
      <point x="27" y="660" type="line"/>
      <point x="27" y="529" type="line"/>
      <point x="307" y="529" type="line"/>
    </contour>
    <contour>
      <point x="268" y="660" type="line"/>
      <point x="246" y="660" type="line"/>
      <point x="246" y="636" type="line"/>
      <point x="235" y="339"/>
      <point x="171" y="110"/>
      <point x="28" y="16" type="curve"/>
      <point x="55" y="-8"/>
      <point x="90" y="-56"/>
      <point x="108" y="-88" type="curve"/>
      <point x="284" y="44"/>
      <point x="353" y="272"/>
      <point x="368" y="652" type="curve"/>
      <point x="290" y="662" type="line"/>
    </contour>
  </outline>
</glyph>
<glyph name="ety005_cid03302_EL" format="1">
  <advance width="1000"/>
  <outline>
    <contour>
      <point x="858" y="766" type="line"/>
      <point x="601" y="766" type="line"/>
      <point x="577" y="736" type="line"/>
      <point x="858" y="736" type="line"/>
    </contour>
    <contour>
      <point x="855" y="765" type="line"/>
      <point x="848" y="765" type="line"/>
      <point x="848" y="757" type="line"/>
      <point x="779" y="675"/>
      <point x="631" y="593"/>
      <point x="461" y="552" type="curve"/>
      <point x="468" y="546"/>
      <point x="476" y="537"/>
      <point x="479" y="530" type="curve"/>
      <point x="654" y="574"/>
      <point x="804" y="657"/>
      <point x="883" y="753" type="curve"/>
      <point x="862" y="767" type="line"/>
    </contour>
  </outline>
</glyph>
<glyph name="ety006_cid03323_H" format="1">
  <advance width="1000"/>
  <outline>
    <contour>
      <point x="287" y="650" type="line"/>
      <point x="25" y="650" type="line"/>
      <point x="25" y="519" type="line"/>
      <point x="287" y="519" type="line"/>
    </contour>
    <contour>
      <point x="267" y="651" type="line"/>
      <point x="246" y="651" type="line"/>
      <point x="246" y="629" type="line"/>
      <point x="236" y="314"/>
      <point x="171" y="94"/>
      <point x="19" y="8" type="curve"/>
      <point x="45" y="-16"/>
      <point x="76" y="-62"/>
      <point x="93" y="-93" type="curve"/>
      <point x="277" y="31"/>
      <point x="348" y="250"/>
      <point x="361" y="645" type="curve"/>
      <point x="288" y="653" type="line"/>
    </contour>
  </outline>
</glyph>
<glyph name="ety007_cid03335_EL" format="1">
  <advance width="1000"/>
  <outline>
    <contour>
      <point x="635" y="727" type="line"/>
      <point x="467" y="727" type="line"/>
      <point x="458" y="698" type="line"/>
      <point x="635" y="698" type="line"/>
    </contour>
    <contour>
      <point x="623" y="727" type="line"/>
      <point x="617" y="727" type="line"/>
      <point x="617" y="719" type="line"/>
      <point x="584" y="445"/>
      <point x="475" y="264"/>
      <point x="346" y="186" type="curve"/>
      <point x="353" y="180"/>
      <point x="362" y="170"/>
      <point x="366" y="163" type="curve"/>
      <point x="501" y="249"/>
      <point x="610" y="431"/>
      <point x="646" y="723" type="curve"/>
      <point x="628" y="729" type="line"/>
    </contour>
  </outline>
</glyph>
<glyph name="ety008_cid03794_H" format="1">
  <advance width="1000"/>
  <outline>
    <contour>
      <point x="170" y="328" type="line"/>
      <point x="48" y="328" type="line"/>
      <point x="48" y="200" type="line"/>
      <point x="170" y="200" type="line"/>
    </contour>
    <contour>
      <point x="170" y="327" type="line"/>
      <point x="148" y="327" type="line"/>
      <point x="148" y="310" type="line"/>
      <point x="134" y="205"/>
      <point x="87" y="100"/>
      <point x="15" y="52" type="curve"/>
      <point x="41" y="28"/>
      <point x="75" y="-19"/>
      <point x="92" y="-48" type="curve"/>
      <point x="190" y="22"/>
      <point x="247" y="145"/>
      <point x="270" y="307" type="curve"/>
      <point x="192" y="330" type="line"/>
    </contour>
  </outline>
</glyph>
<glyph name="ety009_cid03913_EL" format="1">
  <advance width="1000"/>
  <outline>
    <contour>
      <point x="820" y="317" type="line"/>
      <point x="537" y="317" type="line"/>
      <point x="517" y="287" type="line"/>
      <point x="820" y="287" type="line"/>
    </contour>
    <contour>
      <point x="819" y="316" type="line"/>
      <point x="812" y="316" type="line"/>
      <point x="812" y="309" type="line"/>
      <point x="732" y="113"/>
      <point x="533" y="8"/>
      <point x="317" y="-41" type="curve"/>
      <point x="324" y="-47"/>
      <point x="332" y="-59"/>
      <point x="336" y="-66" type="curve"/>
      <point x="556" y="-13"/>
      <point x="758" y="93"/>
      <point x="846" y="305" type="curve"/>
      <point x="826" y="318" type="line"/>
    </contour>
  </outline>
</glyph>
<glyph name="ety010_cid03998_H" format="1">
  <advance width="1000"/>
  <outline>
    <contour>
      <point x="870" y="789" type="line"/>
      <point x="644" y="789" type="line"/>
      <point x="644" y="693" type="line"/>
      <point x="870" y="693" type="line"/>
    </contour>
    <contour>
      <point x="857" y="790" type="line"/>
      <point x="834" y="790" type="line"/>
      <point x="834" y="774" type="line"/>
      <point x="790" y="642"/>
      <point x="661" y="551"/>
      <point x="502" y="515" type="curve"/>
      <point x="525" y="490"/>
      <point x="554" y="443"/>
      <point x="566" y="414" type="curve"/>
      <point x="750" y="469"/>
      <point x="893" y="575"/>
      <point x="955" y="763" type="curve"/>
      <point x="878" y="794" type="line"/>
    </contour>
  </outline>
</glyph>
<glyph name="ety011_cid04023_H" format="1">
  <advance width="1000"/>
  <outline>
    <contour>
      <point x="812" y="263" type="line"/>
      <point x="343" y="263" type="line"/>
      <point x="343" y="151" type="line"/>
      <point x="812" y="151" type="line"/>
    </contour>
    <contour>
      <point x="793" y="264" type="line"/>
      <point x="767" y="264" type="line"/>
      <point x="767" y="247" type="line"/>
      <point x="699" y="113"/>
      <point x="511" y="39"/>
      <point x="295" y="13" type="curve"/>
      <point x="318" y="-14"/>
      <point x="346" y="-66"/>
      <point x="358" y="-98" type="curve"/>
      <point x="602" y="-57"/>
      <point x="808" y="31"/>
      <point x="904" y="226" type="curve"/>
      <point x="816" y="269" type="line"/>
    </contour>
  </outline>
</glyph>
<glyph name="ety012_cid04179_EL" format="1">
  <advance width="1000"/>
  <outline>
    <contour>
      <point x="581" y="748" type="line"/>
      <point x="439" y="748" type="line"/>
      <point x="439" y="719" type="line"/>
      <point x="581" y="719" type="line"/>
    </contour>
    <contour>
      <point x="579" y="747" type="line"/>
      <point x="574" y="747" type="line"/>
      <point x="574" y="740" type="line"/>
      <point x="559" y="687"/>
      <point x="531" y="615"/>
      <point x="505" y="571" type="curve"/>
      <point x="513" y="568"/>
      <point x="524" y="562"/>
      <point x="529" y="558" type="curve"/>
      <point x="556" y="603"/>
      <point x="585" y="673"/>
      <point x="605" y="736" type="curve"/>
      <point x="585" y="749" type="line"/>
    </contour>
  </outline>
</glyph>
<glyph name="ety013_cid04198_H" format="1">
  <advance width="1000"/>
  <outline>
    <contour>
      <point x="846" y="624" type="line"/>
      <point x="526" y="624" type="line"/>
      <point x="526" y="541" type="line"/>
      <point x="846" y="541" type="line"/>
    </contour>
    <contour>
      <point x="837" y="626" type="line"/>
      <point x="816" y="626" type="line"/>
      <point x="816" y="614" type="line"/>
      <point x="775" y="506"/>
      <point x="655" y="445"/>
      <point x="507" y="422" type="curve"/>
      <point x="526" y="399"/>
      <point x="549" y="357"/>
      <point x="559" y="330" type="curve"/>
      <point x="732" y="367"/>
      <point x="866" y="447"/>
      <point x="922" y="606" type="curve"/>
      <point x="856" y="629" type="line"/>
    </contour>
  </outline>
</glyph>
<glyph name="ety014_cid04516_H" format="1">
  <advance width="1000"/>
  <outline>
    <contour>
      <point x="809" y="807" type="line"/>
      <point x="415" y="807" type="line"/>
      <point x="415" y="675" type="line"/>
      <point x="809" y="675" type="line"/>
    </contour>
    <contour>
      <point x="809" y="806" type="line"/>
      <point x="781" y="806" type="line"/>
      <point x="781" y="780" type="line"/>
      <point x="752" y="729"/>
      <point x="682" y="654"/>
      <point x="617" y="612" type="curve"/>
      <point x="634" y="593"/>
      <point x="664" y="555"/>
      <point x="678" y="530" type="curve"/>
      <point x="763" y="582"/>
      <point x="847" y="666"/>
      <point x="906" y="747" type="curve"/>
      <point x="833" y="813" type="line"/>
    </contour>
  </outline>
</glyph>
<glyph name="ety015_cid04582_EL" format="1">
  <advance width="1000"/>
  <outline>
    <contour>
      <point x="906" y="393" type="line"/>
      <point x="619" y="393" type="line"/>
      <point x="619" y="364" type="line"/>
      <point x="906" y="364" type="line"/>
    </contour>
    <contour>
      <point x="908" y="394" type="line"/>
      <point x="901" y="394" type="line"/>
      <point x="901" y="386" type="line"/>
      <point x="859" y="171"/>
      <point x="748" y="35"/>
      <point x="611" y="-35" type="curve"/>
      <point x="618" y="-40"/>
      <point x="627" y="-52"/>
      <point x="632" y="-59" type="curve"/>
      <point x="772" y="17"/>
      <point x="886" y="156"/>
      <point x="933" y="387" type="curve"/>
      <point x="915" y="396" type="line"/>
    </contour>
  </outline>
</glyph>
<glyph name="ety016_cid04582_H" format="1">
  <advance width="1000"/>
  <outline>
    <contour>
      <point x="865" y="411" type="line"/>
      <point x="626" y="411" type="line"/>
      <point x="626" y="289" type="line"/>
      <point x="865" y="289" type="line"/>
    </contour>
    <contour>
      <point x="866" y="410" type="line"/>
      <point x="840" y="410" type="line"/>
      <point x="840" y="390" type="line"/>
      <point x="814" y="195"/>
      <point x="729" y="81"/>
      <point x="588" y="26" type="curve"/>
      <point x="612" y="4"/>
      <point x="653" y="-52"/>
      <point x="667" y="-82" type="curve"/>
      <point x="825" y="-12"/>
      <point x="930" y="137"/>
      <point x="967" y="389" type="curve"/>
      <point x="889" y="413" type="line"/>
    </contour>
  </outline>
</glyph>
<glyph name="ety017_cid04775_EL" format="1">
  <advance width="1000"/>
  <outline>
    <contour>
      <point x="347" y="572" type="line"/>
      <point x="166" y="572" type="line"/>
      <point x="166" y="542" type="line"/>
      <point x="347" y="542" type="line"/>
    </contour>
    <contour>
      <point x="343" y="571" type="line"/>
      <point x="337" y="571" type="line"/>
      <point x="337" y="562" type="line"/>
      <point x="301" y="256"/>
      <point x="194" y="55"/>
      <point x="50" y="-50" type="curve"/>
      <point x="58" y="-55"/>
      <point x="69" y="-65"/>
      <point x="75" y="-72" type="curve"/>
      <point x="219" y="37"/>
      <point x="329" y="242"/>
      <point x="369" y="566" type="curve"/>
      <point x="350" y="572" type="line"/>
    </contour>
  </outline>
</glyph>
<glyph name="ety018_cid04776_EL" format="1">
  <advance width="1000"/>
  <outline>
    <contour>
      <point x="754" y="173" type="line"/>
      <point x="746" y="173" type="line"/>
      <point x="746" y="166" type="line"/>
      <point x="636" y="47"/>
      <point x="363" y="-18"/>
      <point x="144" y="-39" type="curve"/>
      <point x="149" y="-46"/>
      <point x="156" y="-59"/>
      <point x="159" y="-67" type="curve"/>
      <point x="382" y="-41"/>
      <point x="660" y="26"/>
      <point x="779" y="159" type="curve"/>
      <point x="761" y="175" type="line"/>
    </contour>
    <contour>
      <point x="756" y="174" type="line"/>
      <point x="340" y="174" type="line"/>
      <point x="311" y="144" type="line"/>
      <point x="756" y="144" type="line"/>
    </contour>
  </outline>
</glyph>
<glyph name="ety019_cid04797_H" format="1">
  <advance width="1000"/>
  <outline>
    <contour>
      <point x="834" y="662" type="line"/>
      <point x="527" y="662" type="line"/>
      <point x="527" y="580" type="line"/>
      <point x="834" y="580" type="line"/>
    </contour>
    <contour>
      <point x="845" y="661" type="line"/>
      <point x="824" y="661" type="line"/>
      <point x="824" y="648" type="line"/>
      <point x="775" y="539"/>
      <point x="650" y="490"/>
      <point x="490" y="474" type="curve"/>
      <point x="508" y="450"/>
      <point x="529" y="406"/>
      <point x="539" y="377" type="curve"/>
      <point x="724" y="407"/>
      <point x="864" y="471"/>
      <point x="930" y="636" type="curve"/>
      <point x="865" y="664" type="line"/>
    </contour>
  </outline>
</glyph>
<glyph name="ety020_cid04913_EL" format="1">
  <advance width="1000"/>
  <outline>
    <contour>
      <point x="882" y="510" type="line"/>
      <point x="595" y="510" type="line"/>
      <point x="595" y="480" type="line"/>
      <point x="882" y="480" type="line"/>
    </contour>
    <contour>
      <point x="878" y="511" type="line"/>
      <point x="871" y="511" type="line"/>
      <point x="871" y="504" type="line"/>
      <point x="839" y="462"/>
      <point x="780" y="412"/>
      <point x="727" y="381" type="curve"/>
      <point x="734" y="376"/>
      <point x="743" y="369"/>
      <point x="748" y="363" type="curve"/>
      <point x="801" y="395"/>
      <point x="865" y="447"/>
      <point x="906" y="499" type="curve"/>
      <point x="884" y="513" type="line"/>
    </contour>
  </outline>
</glyph>
<glyph name="ety021_cid05430_EL" format="1">
  <advance width="1000"/>
  <outline>
    <contour>
      <point x="818" y="317" type="line"/>
      <point x="811" y="317" type="line"/>
      <point x="811" y="310" type="line"/>
      <point x="727" y="100"/>
      <point x="497" y="-6"/>
      <point x="273" y="-45" type="curve"/>
      <point x="279" y="-52"/>
      <point x="286" y="-64"/>
      <point x="289" y="-72" type="curve"/>
      <point x="520" y="-26"/>
      <point x="752" y="82"/>
      <point x="843" y="307" type="curve"/>
      <point x="824" y="319" type="line"/>
    </contour>
    <contour>
      <point x="833" y="317" type="line"/>
      <point x="532" y="317" type="line"/>
      <point x="515" y="287" type="line"/>
      <point x="833" y="287" type="line"/>
    </contour>
  </outline>
</glyph>
<glyph name="ety022_cid05475_EL" format="1">
  <advance width="1000"/>
  <outline>
    <contour>
      <point x="861" y="238" type="line"/>
      <point x="401" y="238" type="line"/>
      <point x="401" y="209" type="line"/>
      <point x="861" y="209" type="line"/>
    </contour>
    <contour>
      <point x="860" y="239" type="line"/>
      <point x="851" y="239" type="line"/>
      <point x="851" y="232" type="line"/>
      <point x="761" y="77"/>
      <point x="544" y="-7"/>
      <point x="324" y="-44" type="curve"/>
      <point x="331" y="-51"/>
      <point x="340" y="-64"/>
      <point x="344" y="-71" type="curve"/>
      <point x="568" y="-29"/>
      <point x="787" y="56"/>
      <point x="887" y="227" type="curve"/>
      <point x="867" y="241" type="line"/>
    </contour>
  </outline>
</glyph>
<glyph name="ety023_cid05537_EL" format="1">
  <advance width="1000"/>
  <outline>
    <contour>
      <point x="443" y="247" type="line"/>
      <point x="65" y="247" type="line"/>
      <point x="65" y="218" type="line"/>
      <point x="443" y="218" type="line"/>
    </contour>
    <contour>
      <point x="444" y="248" type="line"/>
      <point x="437" y="248" type="line"/>
      <point x="437" y="241" type="line"/>
      <point x="384" y="82"/>
      <point x="228" y="3"/>
      <point x="67" y="-28" type="curve"/>
      <point x="73" y="-35"/>
      <point x="81" y="-47"/>
      <point x="84" y="-55" type="curve"/>
      <point x="253" y="-17"/>
      <point x="410" y="65"/>
      <point x="470" y="241" type="curve"/>
      <point x="451" y="250" type="line"/>
    </contour>
  </outline>
</glyph>
<glyph name="ety024_cid05613_EL" format="1">
  <advance width="1000"/>
  <outline>
    <contour>
      <point x="502" y="463" type="line"/>
      <point x="280" y="463" type="line"/>
      <point x="280" y="433" type="line"/>
      <point x="502" y="433" type="line"/>
    </contour>
    <contour>
      <point x="499" y="465" type="line"/>
      <point x="492" y="465" type="line"/>
      <point x="492" y="457" type="line"/>
      <point x="452" y="254"/>
      <point x="348" y="116"/>
      <point x="224" y="43" type="curve"/>
      <point x="231" y="38"/>
      <point x="240" y="28"/>
      <point x="245" y="20" type="curve"/>
      <point x="373" y="98"/>
      <point x="479" y="239"/>
      <point x="525" y="458" type="curve"/>
      <point x="506" y="467" type="line"/>
    </contour>
  </outline>
</glyph>
<glyph name="ety025_cid05750_EL" format="1">
  <advance width="1000"/>
  <outline>
    <contour>
      <point x="866" y="425" type="line"/>
      <point x="591" y="425" type="line"/>
      <point x="591" y="395" type="line"/>
      <point x="866" y="395" type="line"/>
    </contour>
    <contour>
      <point x="859" y="424" type="line"/>
      <point x="853" y="424" type="line"/>
      <point x="853" y="416" type="line"/>
      <point x="809" y="192"/>
      <point x="682" y="23"/>
      <point x="555" y="-49" type="curve"/>
      <point x="563" y="-54"/>
      <point x="571" y="-65"/>
      <point x="575" y="-71" type="curve"/>
      <point x="707" y="8"/>
      <point x="834" y="177"/>
      <point x="882" y="418" type="curve"/>
      <point x="865" y="425" type="line"/>
    </contour>
  </outline>
</glyph>
<glyph name="ety026_cid05954_EL" format="1">
  <advance width="1000"/>
  <outline>
    <contour>
      <point x="867" y="742" type="line"/>
      <point x="859" y="742" type="line"/>
      <point x="859" y="735" type="line"/>
      <point x="780" y="566"/>
      <point x="590" y="466"/>
      <point x="394" y="418" type="curve"/>
      <point x="401" y="412"/>
      <point x="410" y="401"/>
      <point x="414" y="393" type="curve"/>
      <point x="613" y="446"/>
      <point x="806" y="547"/>
      <point x="892" y="731" type="curve"/>
      <point x="873" y="744" type="line"/>
    </contour>
    <contour>
      <point x="868" y="743" type="line"/>
      <point x="573" y="743" type="line"/>
      <point x="561" y="714" type="line"/>
      <point x="868" y="714" type="line"/>
    </contour>
  </outline>
</glyph>
<glyph name="ety027_cid05977_EL" format="1">
  <advance width="1000"/>
  <outline>
    <contour>
      <point x="754" y="561" type="line"/>
      <point x="573" y="561" type="line"/>
      <point x="552" y="531" type="line"/>
      <point x="754" y="531" type="line"/>
    </contour>
    <contour>
      <point x="753" y="560" type="line"/>
      <point x="746" y="560" type="line"/>
      <point x="746" y="552" type="line"/>
      <point x="680" y="403"/>
      <point x="512" y="295"/>
      <point x="363" y="251" type="curve"/>
      <point x="369" y="244"/>
      <point x="378" y="233"/>
      <point x="381" y="227" type="curve"/>
      <point x="535" y="277"/>
      <point x="706" y="385"/>
      <point x="778" y="551" type="curve"/>
      <point x="759" y="562" type="line"/>
    </contour>
  </outline>
</glyph>
<glyph name="ety029_cid06211_EL" format="1">
  <advance width="1000"/>
  <outline>
    <contour>
      <point x="790" y="185" type="line"/>
      <point x="371" y="185" type="line"/>
      <point x="371" y="156" type="line"/>
      <point x="790" y="156" type="line"/>
    </contour>
    <contour>
      <point x="787" y="183" type="line"/>
      <point x="780" y="183" type="line"/>
      <point x="780" y="177" type="line"/>
      <point x="693" y="45"/>
      <point x="466" y="-24"/>
      <point x="267" y="-48" type="curve"/>
      <point x="273" y="-55"/>
      <point x="280" y="-66"/>
      <point x="282" y="-74" type="curve"/>
      <point x="486" y="-46"/>
      <point x="717" y="26"/>
      <point x="812" y="173" type="curve"/>
      <point x="794" y="185" type="line"/>
    </contour>
  </outline>
</glyph>
<glyph name="ety030_cid06599_EL" format="1">
  <advance width="1000"/>
  <outline>
    <contour>
      <point x="466" y="752" type="line"/>
      <point x="230" y="752" type="line"/>
      <point x="211" y="722" type="line"/>
      <point x="466" y="722" type="line"/>
    </contour>
    <contour>
      <point x="467" y="753" type="line"/>
      <point x="461" y="753" type="line"/>
      <point x="461" y="746" type="line"/>
      <point x="389" y="596"/>
      <point x="205" y="492"/>
      <point x="49" y="453" type="curve"/>
      <point x="55" y="446"/>
      <point x="63" y="435"/>
      <point x="66" y="427" type="curve"/>
      <point x="226" y="473"/>
      <point x="412" y="578"/>
      <point x="489" y="743" type="curve"/>
      <point x="473" y="755" type="line"/>
    </contour>
  </outline>
</glyph>
<glyph name="ety031_cid06722_EL" format="1">
  <advance width="1000"/>
  <outline>
    <contour>
      <point x="648" y="695" type="line"/>
      <point x="493" y="695" type="line"/>
      <point x="493" y="666" type="line"/>
      <point x="648" y="666" type="line"/>
    </contour>
    <contour>
      <point x="639" y="696" type="line"/>
      <point x="633" y="696" type="line"/>
      <point x="633" y="689" type="line"/>
      <point x="612" y="574"/>
      <point x="550" y="484"/>
      <point x="483" y="443" type="curve"/>
      <point x="491" y="438"/>
      <point x="499" y="428"/>
      <point x="503" y="422" type="curve"/>
      <point x="574" y="469"/>
      <point x="637" y="562"/>
      <point x="663" y="691" type="curve"/>
      <point x="645" y="697" type="line"/>
    </contour>
  </outline>
</glyph>
<glyph name="ety032_cid07085_EL" format="1">
  <advance width="1000"/>
  <outline>
    <contour>
      <point x="485" y="560" type="line"/>
      <point x="479" y="560" type="line"/>
      <point x="479" y="553" type="line"/>
      <point x="411" y="397"/>
      <point x="229" y="294"/>
      <point x="67" y="254" type="curve"/>
      <point x="73" y="248"/>
      <point x="81" y="237"/>
      <point x="84" y="229" type="curve"/>
      <point x="250" y="276"/>
      <point x="434" y="380"/>
      <point x="510" y="551" type="curve"/>
      <point x="492" y="562" type="line"/>
    </contour>
    <contour>
      <point x="487" y="558" type="line"/>
      <point x="253" y="558" type="line"/>
      <point x="230" y="528" type="line"/>
      <point x="487" y="528" type="line"/>
    </contour>
  </outline>
</glyph>
<glyph name="ety033_cid07197_EL" format="1">
  <advance width="1000"/>
  <outline>
    <contour>
      <point x="468" y="569" type="line"/>
      <point x="461" y="569" type="line"/>
      <point x="461" y="561" type="line"/>
      <point x="400" y="349"/>
      <point x="244" y="223"/>
      <point x="66" y="160" type="curve"/>
      <point x="73" y="154"/>
      <point x="83" y="142"/>
      <point x="86" y="135" type="curve"/>
      <point x="268" y="203"/>
      <point x="427" y="332"/>
      <point x="493" y="560" type="curve"/>
      <point x="475" y="571" type="line"/>
    </contour>
    <contour>
      <point x="476" y="568" type="line"/>
      <point x="255" y="568" type="line"/>
      <point x="243" y="538" type="line"/>
      <point x="476" y="538" type="line"/>
    </contour>
  </outline>
</glyph>
<glyph name="ety034_cid07381_EL" format="1">
  <advance width="1000"/>
  <outline>
    <contour>
      <point x="850" y="297" type="line"/>
      <point x="434" y="297" type="line"/>
      <point x="434" y="268" type="line"/>
      <point x="850" y="268" type="line"/>
    </contour>
    <contour>
      <point x="848" y="298" type="line"/>
      <point x="841" y="298" type="line"/>
      <point x="841" y="291" type="line"/>
      <point x="767" y="109"/>
      <point x="572" y="1"/>
      <point x="384" y="-43" type="curve"/>
      <point x="390" y="-50"/>
      <point x="398" y="-61"/>
      <point x="402" y="-68" type="curve"/>
      <point x="595" y="-18"/>
      <point x="792" y="90"/>
      <point x="873" y="289" type="curve"/>
      <point x="854" y="300" type="line"/>
    </contour>
  </outline>
</glyph>
<glyph name="ety035_cid07387_H" format="1">
  <advance width="1000"/>
  <outline>
    <contour>
      <point x="438" y="635" type="line"/>
      <point x="235" y="635" type="line"/>
      <point x="235" y="548" type="line"/>
      <point x="438" y="548" type="line"/>
    </contour>
    <contour>
      <point x="409" y="636" type="line"/>
      <point x="386" y="636" type="line"/>
      <point x="386" y="622" type="line"/>
      <point x="350" y="482"/>
      <point x="240" y="398"/>
      <point x="86" y="365" type="curve"/>
      <point x="107" y="341"/>
      <point x="133" y="296"/>
      <point x="145" y="267" type="curve"/>
      <point x="328" y="318"/>
      <point x="452" y="418"/>
      <point x="503" y="617" type="curve"/>
      <point x="430" y="639" type="line"/>
    </contour>
  </outline>
</glyph>
<glyph name="ety036_cid07452_H" format="1">
  <advance width="1000"/>
  <outline>
    <contour>
      <point x="863" y="744" type="line"/>
      <point x="629" y="744" type="line"/>
      <point x="573" y="616" type="line"/>
      <point x="863" y="616" type="line"/>
    </contour>
    <contour>
      <point x="844" y="745" type="line"/>
      <point x="816" y="745" type="line"/>
      <point x="816" y="718" type="line"/>
      <point x="800" y="669"/>
      <point x="756" y="583"/>
      <point x="717" y="527" type="curve"/>
      <point x="745" y="511"/>
      <point x="787" y="480"/>
      <point x="811" y="459" type="curve"/>
      <point x="858" y="521"/>
      <point x="917" y="618"/>
      <point x="949" y="689" type="curve"/>
      <point x="863" y="751" type="line"/>
    </contour>
  </outline>
</glyph>
<glyph name="ety037_cid08193_EL" format="1">
  <advance width="1000"/>
  <outline>
    <contour>
      <point x="499" y="234" type="line"/>
      <point x="66" y="234" type="line"/>
      <point x="66" y="205" type="line"/>
      <point x="499" y="205" type="line"/>
    </contour>
    <contour>
      <point x="495" y="235" type="line"/>
      <point x="488" y="235" type="line"/>
      <point x="488" y="229" type="line"/>
      <point x="420" y="91"/>
      <point x="238" y="9"/>
      <point x="70" y="-24" type="curve"/>
      <point x="77" y="-31"/>
      <point x="84" y="-42"/>
      <point x="88" y="-50" type="curve"/>
      <point x="262" y="-11"/>
      <point x="445" y="74"/>
      <point x="523" y="227" type="curve"/>
      <point x="502" y="237" type="line"/>
    </contour>
  </outline>
</glyph>
<glyph name="ety038_cid08318_EL" format="1">
  <advance width="1000"/>
  <outline>
    <contour>
      <point x="858" y="773" type="line"/>
      <point x="601" y="773" type="line"/>
      <point x="577" y="744" type="line"/>
      <point x="858" y="744" type="line"/>
    </contour>
    <contour>
      <point x="855" y="772" type="line"/>
      <point x="848" y="772" type="line"/>
      <point x="848" y="765" type="line"/>
      <point x="778" y="686"/>
      <point x="628" y="610"/>
      <point x="457" y="572" type="curve"/>
      <point x="464" y="567"/>
      <point x="472" y="558"/>
      <point x="476" y="550" type="curve"/>
      <point x="652" y="591"/>
      <point x="803" y="669"/>
      <point x="883" y="761" type="curve"/>
      <point x="862" y="774" type="line"/>
    </contour>
  </outline>
</glyph>
<glyph name="ety039_cid08319_H" format="1">
  <advance width="1000"/>
  <outline>
    <contour>
      <point x="818" y="313" type="line"/>
      <point x="628" y="313" type="line"/>
      <point x="577" y="210" type="line"/>
      <point x="818" y="210" type="line"/>
    </contour>
    <contour>
      <point x="813" y="314" type="line"/>
      <point x="787" y="314" type="line"/>
      <point x="787" y="294" type="line"/>
      <point x="730" y="138"/>
      <point x="571" y="51"/>
      <point x="374" y="12" type="curve"/>
      <point x="401" y="-10"/>
      <point x="443" y="-63"/>
      <point x="459" y="-92" type="curve"/>
      <point x="664" y="-40"/>
      <point x="838" y="70"/>
      <point x="918" y="276" type="curve"/>
      <point x="835" y="318" type="line"/>
    </contour>
  </outline>
</glyph>
<glyph name="ety040_cid08938_EL" format="1">
  <advance width="1000"/>
  <outline>
    <contour>
      <point x="849" y="294" type="line"/>
      <point x="481" y="294" type="line"/>
      <point x="481" y="265" type="line"/>
      <point x="849" y="265" type="line"/>
    </contour>
    <contour>
      <point x="847" y="293" type="line"/>
      <point x="840" y="293" type="line"/>
      <point x="840" y="285" type="line"/>
      <point x="766" y="132"/>
      <point x="578" y="9"/>
      <point x="427" y="-41" type="curve"/>
      <point x="433" y="-47"/>
      <point x="442" y="-59"/>
      <point x="446" y="-67" type="curve"/>
      <point x="601" y="-12"/>
      <point x="790" y="113"/>
      <point x="872" y="282" type="curve"/>
      <point x="853" y="295" type="line"/>
    </contour>
  </outline>
</glyph>
<glyph name="ety041_cid08953_H" format="1">
  <advance width="1000"/>
  <outline>
    <contour>
      <point x="821" y="313" type="line"/>
      <point x="650" y="313" type="line"/>
      <point x="607" y="218" type="line"/>
      <point x="821" y="218" type="line"/>
    </contour>
    <contour>
      <point x="802" y="314" type="line"/>
      <point x="780" y="314" type="line"/>
      <point x="780" y="295" type="line"/>
      <point x="727" y="129"/>
      <point x="580" y="37"/>
      <point x="400" y="-4" type="curve"/>
      <point x="423" y="-26"/>
      <point x="459" y="-75"/>
      <point x="473" y="-103" type="curve"/>
      <point x="660" y="-49"/>
      <point x="820" y="65"/>
      <point x="892" y="278" type="curve"/>
      <point x="821" y="318" type="line"/>
    </contour>
  </outline>
</glyph>
<glyph name="ety044_cid09190_EL" format="1">
  <advance width="1000"/>
  <outline>
    <contour>
      <point x="301" y="741" type="line"/>
      <point x="154" y="741" type="line"/>
      <point x="154" y="712" type="line"/>
      <point x="301" y="712" type="line"/>
    </contour>
    <contour>
      <point x="285" y="741" type="line"/>
      <point x="280" y="741" type="line"/>
      <point x="280" y="733" type="line"/>
      <point x="267" y="682"/>
      <point x="240" y="614"/>
      <point x="217" y="571" type="curve"/>
      <point x="224" y="567"/>
      <point x="232" y="558"/>
      <point x="237" y="551" type="curve"/>
      <point x="262" y="597"/>
      <point x="292" y="667"/>
      <point x="312" y="729" type="curve"/>
      <point x="291" y="743" type="line"/>
    </contour>
  </outline>
</glyph>
<glyph name="ety045_cid09212_EL" format="1">
  <advance width="1000"/>
  <outline>
    <contour>
      <point x="711" y="441" type="line"/>
      <point x="542" y="441" type="line"/>
      <point x="542" y="412" type="line"/>
      <point x="711" y="412" type="line"/>
    </contour>
    <contour>
      <point x="719" y="441" type="line"/>
      <point x="712" y="441" type="line"/>
      <point x="712" y="434" type="line"/>
      <point x="694" y="397"/>
      <point x="661" y="349"/>
      <point x="631" y="320" type="curve"/>
      <point x="639" y="315"/>
      <point x="648" y="307"/>
      <point x="653" y="301" type="curve"/>
      <point x="684" y="333"/>
      <point x="721" y="382"/>
      <point x="747" y="429" type="curve"/>
      <point x="724" y="443" type="line"/>
    </contour>
  </outline>
</glyph>
<glyph name="ety046_cid09281_EL" format="1">
  <advance width="1000"/>
  <outline>
    <contour>
      <point x="416" y="280" type="line"/>
      <point x="91" y="280" type="line"/>
      <point x="91" y="249" type="line"/>
      <point x="416" y="249" type="line"/>
    </contour>
    <contour>
      <point x="416" y="279" type="line"/>
      <point x="410" y="279" type="line"/>
      <point x="410" y="271" type="line"/>
      <point x="377" y="199"/>
      <point x="300" y="84"/>
      <point x="252" y="33" type="curve"/>
      <point x="259" y="29"/>
      <point x="270" y="20"/>
      <point x="276" y="14" type="curve"/>
      <point x="324" y="70"/>
      <point x="403" y="183"/>
      <point x="443" y="270" type="curve"/>
      <point x="422" y="281" type="line"/>
    </contour>
  </outline>
</glyph>
<glyph name="ety047_cid09287_EL" format="1">
  <advance width="1000"/>
  <outline>
    <contour>
      <point x="281" y="782" type="line"/>
      <point x="105" y="782" type="line"/>
      <point x="105" y="752" type="line"/>
      <point x="281" y="752" type="line"/>
    </contour>
    <contour>
      <point x="271" y="782" type="line"/>
      <point x="264" y="782" type="line"/>
      <point x="264" y="773" type="line"/>
      <point x="230" y="643"/>
      <point x="148" y="524"/>
      <point x="66" y="458" type="curve"/>
      <point x="73" y="454"/>
      <point x="83" y="445"/>
      <point x="87" y="438" type="curve"/>
      <point x="171" y="510"/>
      <point x="254" y="630"/>
      <point x="293" y="774" type="curve"/>
      <point x="277" y="784" type="line"/>
    </contour>
  </outline>
</glyph>
<glyph name="ety048_cid09293_EL" format="1">
  <advance width="1000"/>
  <outline>
    <contour>
      <point x="862" y="789" type="line"/>
      <point x="605" y="789" type="line"/>
      <point x="581" y="760" type="line"/>
      <point x="862" y="760" type="line"/>
    </contour>
    <contour>
      <point x="859" y="788" type="line"/>
      <point x="852" y="788" type="line"/>
      <point x="852" y="780" type="line"/>
      <point x="783" y="712"/>
      <point x="638" y="647"/>
      <point x="470" y="616" type="curve"/>
      <point x="476" y="610"/>
      <point x="485" y="600"/>
      <point x="489" y="593" type="curve"/>
      <point x="662" y="627"/>
      <point x="810" y="693"/>
      <point x="889" y="775" type="curve"/>
      <point x="867" y="790" type="line"/>
    </contour>
  </outline>
</glyph>
<glyph name="ety049_cid09548_EL" format="1">
  <advance width="1000"/>
  <outline>
    <contour>
      <point x="373" y="562" type="line"/>
      <point x="72" y="562" type="line"/>
      <point x="72" y="532" type="line"/>
      <point x="373" y="532" type="line"/>
    </contour>
    <contour>
      <point x="361" y="562" type="line"/>
      <point x="354" y="562" type="line"/>
      <point x="354" y="554" type="line"/>
      <point x="303" y="375"/>
      <point x="180" y="237"/>
      <point x="48" y="165" type="curve"/>
      <point x="55" y="160"/>
      <point x="64" y="150"/>
      <point x="68" y="143" type="curve"/>
      <point x="201" y="221"/>
      <point x="328" y="360"/>
      <point x="384" y="554" type="curve"/>
      <point x="367" y="564" type="line"/>
    </contour>
  </outline>
</glyph>
<glyph name="ety050_cid09676_EL" format="1">
  <advance width="1000"/>
  <outline>
    <contour>
      <point x="601" y="769" type="line"/>
      <point x="300" y="769" type="line"/>
      <point x="277" y="740" type="line"/>
      <point x="601" y="740" type="line"/>
    </contour>
    <contour>
      <point x="590" y="769" type="line"/>
      <point x="583" y="769" type="line"/>
      <point x="583" y="763" type="line"/>
      <point x="565" y="723"/>
      <point x="528" y="672"/>
      <point x="495" y="642" type="curve"/>
      <point x="504" y="639"/>
      <point x="515" y="632"/>
      <point x="521" y="627" type="curve"/>
      <point x="554" y="659"/>
      <point x="592" y="709"/>
      <point x="617" y="758" type="curve"/>
      <point x="596" y="771" type="line"/>
    </contour>
  </outline>
</glyph>
<glyph name="ety051_cid09745_H" format="1">
  <advance width="1000"/>
  <outline>
    <contour>
      <point x="726" y="372" type="line"/>
      <point x="145" y="372" type="line"/>
      <point x="145" y="261" type="line"/>
      <point x="726" y="261" type="line"/>
    </contour>
    <contour>
      <point x="735" y="373" type="line"/>
      <point x="695" y="373" type="line"/>
      <point x="695" y="347" type="line"/>
      <point x="643" y="311"/>
      <point x="524" y="261"/>
      <point x="420" y="236" type="curve"/>
      <point x="438" y="217"/>
      <point x="471" y="180"/>
      <point x="486" y="158" type="curve"/>
      <point x="624" y="191"/>
      <point x="751" y="242"/>
      <point x="857" y="298" type="curve"/>
      <point x="767" y="379" type="line"/>
    </contour>
  </outline>
</glyph>
<glyph name="ety052_cid11832_EL" format="1">
  <advance width="1000"/>
  <outline>
    <contour>
      <point x="536" y="402" type="line"/>
      <point x="528" y="402" type="line"/>
      <point x="528" y="395" type="line"/>
      <point x="474" y="260"/>
      <point x="341" y="181"/>
      <point x="193" y="143" type="curve"/>
      <point x="200" y="137"/>
      <point x="209" y="127"/>
      <point x="213" y="119" type="curve"/>
      <point x="364" y="162"/>
      <point x="499" y="243"/>
      <point x="561" y="393" type="curve"/>
      <point x="543" y="404" type="line"/>
    </contour>
    <contour>
      <point x="537" y="403" type="line"/>
      <point x="356" y="403" type="line"/>
      <point x="341" y="374" type="line"/>
      <point x="537" y="374" type="line"/>
    </contour>
  </outline>
</glyph>
<glyph name="ety053_cid12713_EL" format="1">
  <advance width="1000"/>
  <outline>
    <contour>
      <point x="473" y="496" type="line"/>
      <point x="92" y="496" type="line"/>
      <point x="92" y="467" type="line"/>
      <point x="473" y="467" type="line"/>
    </contour>
    <contour>
      <point x="462" y="496" type="line"/>
      <point x="455" y="496" type="line"/>
      <point x="455" y="488" type="line"/>
      <point x="411" y="437"/>
      <point x="332" y="376"/>
      <point x="268" y="338" type="curve"/>
      <point x="275" y="334"/>
      <point x="283" y="327"/>
      <point x="288" y="321" type="curve"/>
      <point x="354" y="360"/>
      <point x="438" y="422"/>
      <point x="492" y="483" type="curve"/>
      <point x="470" y="498" type="line"/>
    </contour>
  </outline>
</glyph>
<glyph name="ety054_cid14043_EL" format="1">
  <advance width="1000"/>
  <outline>
    <contour>
      <point x="739" y="268" type="line"/>
      <point x="731" y="268" type="line"/>
      <point x="731" y="261" type="line"/>
      <point x="615" y="85"/>
      <point x="338" y="-6"/>
      <point x="68" y="-44" type="curve"/>
      <point x="74" y="-51"/>
      <point x="82" y="-63"/>
      <point x="84" y="-71" type="curve"/>
      <point x="359" y="-27"/>
      <point x="638" y="63"/>
      <point x="766" y="255" type="curve"/>
      <point x="747" y="270" type="line"/>
    </contour>
    <contour>
      <point x="738" y="269" type="line"/>
      <point x="328" y="269" type="line"/>
      <point x="298" y="239" type="line"/>
      <point x="738" y="239" type="line"/>
    </contour>
  </outline>
</glyph>
<glyph name="ety055_cid14557_EL" format="1">
  <advance width="1000"/>
  <outline>
    <contour>
      <point x="354" y="619" type="line"/>
      <point x="49" y="619" type="line"/>
      <point x="49" y="589" type="line"/>
      <point x="354" y="589" type="line"/>
    </contour>
    <contour>
      <point x="340" y="619" type="line"/>
      <point x="334" y="619" type="line"/>
      <point x="334" y="610" type="line"/>
      <point x="309" y="248"/>
      <point x="202" y="44"/>
      <point x="51" y="-45" type="curve"/>
      <point x="59" y="-51"/>
      <point x="68" y="-63"/>
      <point x="73" y="-69" type="curve"/>
      <point x="230" y="30"/>
      <point x="337" y="234"/>
      <point x="364" y="616" type="curve"/>
      <point x="346" y="621" type="line"/>
    </contour>
  </outline>
</glyph>
<glyph name="ety056_cid14642_EL" format="1">
  <advance width="1000"/>
  <outline>
    <contour>
      <point x="374" y="619" type="line"/>
      <point x="49" y="619" type="line"/>
      <point x="49" y="589" type="line"/>
      <point x="374" y="589" type="line"/>
    </contour>
    <contour>
      <point x="360" y="619" type="line"/>
      <point x="354" y="619" type="line"/>
      <point x="354" y="610" type="line"/>
      <point x="327" y="248"/>
      <point x="213" y="44"/>
      <point x="52" y="-45" type="curve"/>
      <point x="61" y="-51"/>
      <point x="71" y="-63"/>
      <point x="76" y="-69" type="curve"/>
      <point x="242" y="30"/>
      <point x="357" y="234"/>
      <point x="385" y="616" type="curve"/>
      <point x="366" y="621" type="line"/>
    </contour>
  </outline>
</glyph>
<glyph name="ety057_cid14983_H" format="1">
  <advance width="1000"/>
  <outline>
    <contour>
      <point x="332" y="660" type="line"/>
      <point x="34" y="660" type="line"/>
      <point x="34" y="527" type="line"/>
      <point x="332" y="527" type="line"/>
    </contour>
    <contour>
      <point x="293" y="660" type="line"/>
      <point x="269" y="660" type="line"/>
      <point x="269" y="635" type="line"/>
      <point x="256" y="342"/>
      <point x="183" y="123"/>
      <point x="24" y="37" type="curve"/>
      <point x="52" y="10"/>
      <point x="88" y="-42"/>
      <point x="106" y="-77" type="curve"/>
      <point x="301" y="48"/>
      <point x="381" y="269"/>
      <point x="399" y="651" type="curve"/>
      <point x="316" y="662" type="line"/>
    </contour>
  </outline>
</glyph>
<glyph name="ety058_cid15411_EL" format="1">
  <advance width="1000"/>
  <outline>
    <contour>
      <point x="752" y="369" type="line"/>
      <point x="227" y="369" type="line"/>
      <point x="227" y="339" type="line"/>
      <point x="752" y="339" type="line"/>
    </contour>
    <contour>
      <point x="748" y="370" type="line"/>
      <point x="741" y="370" type="line"/>
      <point x="741" y="363" type="line"/>
      <point x="683" y="320"/>
      <point x="576" y="277"/>
      <point x="483" y="253" type="curve"/>
      <point x="490" y="247"/>
      <point x="499" y="238"/>
      <point x="504" y="231" type="curve"/>
      <point x="597" y="258"/>
      <point x="709" y="302"/>
      <point x="778" y="355" type="curve"/>
      <point x="756" y="372" type="line"/>
    </contour>
  </outline>
</glyph>
<glyph name="ety060_cid15451_H" format="1">
  <advance width="1000"/>
  <outline>
    <contour>
      <point x="276" y="801" type="line"/>
      <point x="50" y="801" type="line"/>
      <point x="50" y="668" type="line"/>
      <point x="276" y="668" type="line"/>
    </contour>
    <contour>
      <point x="272" y="802" type="line"/>
      <point x="242" y="802" type="line"/>
      <point x="242" y="776" type="line"/>
      <point x="224" y="713"/>
      <point x="178" y="618"/>
      <point x="132" y="562" type="curve"/>
      <point x="157" y="543"/>
      <point x="197" y="503"/>
      <point x="216" y="476" type="curve"/>
      <point x="279" y="544"/>
      <point x="343" y="656"/>
      <point x="384" y="754" type="curve"/>
      <point x="297" y="809" type="line"/>
    </contour>
  </outline>
</glyph>
<glyph name="ety061_cid15656_H" format="1">
  <advance width="1000"/>
  <outline>
    <contour>
      <point x="430" y="614" type="line"/>
      <point x="290" y="614" type="line"/>
      <point x="218" y="529" type="line"/>
      <point x="430" y="529" type="line"/>
    </contour>
    <contour>
      <point x="423" y="616" type="line"/>
      <point x="400" y="616" type="line"/>
      <point x="400" y="597" type="line"/>
      <point x="346" y="451"/>
      <point x="194" y="339"/>
      <point x="22" y="291" type="curve"/>
      <point x="46" y="267"/>
      <point x="77" y="220"/>
      <point x="91" y="190" type="curve"/>
      <point x="285" y="257"/>
      <point x="449" y="382"/>
      <point x="524" y="584" type="curve"/>
      <point x="443" y="621" type="line"/>
    </contour>
  </outline>
</glyph>
<glyph name="ety062_cid16257_H" format="1">
  <advance width="1000"/>
  <outline>
    <contour>
      <point x="834" y="807" type="line"/>
      <point x="451" y="807" type="line"/>
      <point x="451" y="675" type="line"/>
      <point x="834" y="675" type="line"/>
    </contour>
    <contour>
      <point x="833" y="806" type="line"/>
      <point x="806" y="806" type="line"/>
      <point x="806" y="780" type="line"/>
      <point x="777" y="730"/>
      <point x="708" y="656"/>
      <point x="643" y="615" type="curve"/>
      <point x="660" y="595"/>
      <point x="689" y="557"/>
      <point x="702" y="532" type="curve"/>
      <point x="787" y="583"/>
      <point x="869" y="667"/>
      <point x="927" y="747" type="curve"/>
      <point x="856" y="813" type="line"/>
    </contour>
  </outline>
</glyph>
<glyph name="ety063_cid16514_EL" format="1">
  <advance width="1000"/>
  <outline>
    <contour>
      <point x="605" y="785" type="line"/>
      <point x="388" y="785" type="line"/>
      <point x="388" y="756" type="line"/>
      <point x="605" y="756" type="line"/>
    </contour>
    <contour>
      <point x="592" y="785" type="line"/>
      <point x="586" y="785" type="line"/>
      <point x="586" y="777" type="line"/>
      <point x="545" y="627"/>
      <point x="438" y="495"/>
      <point x="340" y="438" type="curve"/>
      <point x="347" y="433"/>
      <point x="356" y="424"/>
      <point x="361" y="417" type="curve"/>
      <point x="462" y="480"/>
      <point x="571" y="613"/>
      <point x="616" y="778" type="curve"/>
      <point x="598" y="787" type="line"/>
    </contour>
  </outline>
</glyph>
<glyph name="ety064_cid16847_EL" format="1">
  <advance width="1000"/>
  <outline>
    <contour>
      <point x="760" y="776" type="line"/>
      <point x="547" y="776" type="line"/>
      <point x="529" y="747" type="line"/>
      <point x="760" y="747" type="line"/>
    </contour>
    <contour>
      <point x="750" y="776" type="line"/>
      <point x="744" y="776" type="line"/>
      <point x="744" y="769" type="line"/>
      <point x="727" y="730"/>
      <point x="697" y="676"/>
      <point x="669" y="645" type="curve"/>
      <point x="676" y="642"/>
      <point x="687" y="636"/>
      <point x="693" y="631" type="curve"/>
      <point x="721" y="664"/>
      <point x="754" y="717"/>
      <point x="775" y="766" type="curve"/>
      <point x="756" y="778" type="line"/>
    </contour>
  </outline>
</glyph>
<glyph name="ety065_cid17625_EL" format="1">
  <advance width="1000"/>
  <outline>
    <contour>
      <point x="901" y="755" type="line"/>
      <point x="556" y="755" type="line"/>
      <point x="556" y="725" type="line"/>
      <point x="901" y="725" type="line"/>
    </contour>
    <contour>
      <point x="890" y="755" type="line"/>
      <point x="884" y="755" type="line"/>
      <point x="884" y="748" type="line"/>
      <point x="826" y="524"/>
      <point x="658" y="386"/>
      <point x="488" y="331" type="curve"/>
      <point x="495" y="326"/>
      <point x="503" y="315"/>
      <point x="506" y="307" type="curve"/>
      <point x="680" y="370"/>
      <point x="851" y="508"/>
      <point x="914" y="748" type="curve"/>
      <point x="896" y="757" type="line"/>
    </contour>
  </outline>
</glyph>
<glyph name="ety066_cid17933_H" format="1">
  <advance width="1000"/>
  <outline>
    <contour>
      <point x="438" y="624" type="line"/>
      <point x="235" y="624" type="line"/>
      <point x="235" y="517" type="line"/>
      <point x="438" y="517" type="line"/>
    </contour>
    <contour>
      <point x="415" y="626" type="line"/>
      <point x="390" y="626" type="line"/>
      <point x="390" y="608" type="line"/>
      <point x="348" y="423"/>
      <point x="217" y="313"/>
      <point x="23" y="272" type="curve"/>
      <point x="47" y="245"/>
      <point x="77" y="193"/>
      <point x="90" y="159" type="curve"/>
      <point x="316" y="223"/>
      <point x="465" y="347"/>
      <point x="523" y="603" type="curve"/>
      <point x="439" y="630" type="line"/>
    </contour>
  </outline>
</glyph>
<glyph name="ety067_cid18007_EL" format="1">
  <advance width="1000"/>
  <outline>
    <contour>
      <point x="821" y="313" type="line"/>
      <point x="815" y="313" type="line"/>
      <point x="815" y="306" type="line"/>
      <point x="741" y="102"/>
      <point x="534" y="-2"/>
      <point x="328" y="-42" type="curve"/>
      <point x="333" y="-48"/>
      <point x="340" y="-59"/>
      <point x="343" y="-66" type="curve"/>
      <point x="556" y="-21"/>
      <point x="765" y="84"/>
      <point x="845" y="305" type="curve"/>
      <point x="827" y="315" type="line"/>
    </contour>
    <contour>
      <point x="808" y="313" type="line"/>
      <point x="529" y="313" type="line"/>
      <point x="506" y="283" type="line"/>
      <point x="808" y="283" type="line"/>
    </contour>
  </outline>
</glyph>
<glyph name="ety068_cid20800_H" format="1">
  <advance width="1000"/>
  <outline>
    <contour>
      <point x="860" y="775" type="line"/>
      <point x="441" y="775" type="line"/>
      <point x="441" y="635" type="line"/>
      <point x="860" y="635" type="line"/>
    </contour>
    <contour>
      <point x="833" y="776" type="line"/>
      <point x="809" y="776" type="line"/>
      <point x="809" y="747" type="line"/>
      <point x="770" y="390"/>
      <point x="618" y="136"/>
      <point x="370" y="29" type="curve"/>
      <point x="401" y="2"/>
      <point x="440" y="-54"/>
      <point x="460" y="-91" type="curve"/>
      <point x="741" y="53"/>
      <point x="900" y="312"/>
      <point x="949" y="753" type="curve"/>
      <point x="857" y="781" type="line"/>
    </contour>
  </outline>
</glyph>
<glyph name="ety069_cid20998_H" format="1">
  <advance width="1000"/>
  <outline>
    <contour>
      <point x="848" y="756" type="line"/>
      <point x="559" y="756" type="line"/>
      <point x="559" y="633" type="line"/>
      <point x="848" y="633" type="line"/>
    </contour>
    <contour>
      <point x="833" y="758" type="line"/>
      <point x="805" y="758" type="line"/>
      <point x="805" y="733" type="line"/>
      <point x="739" y="548"/>
      <point x="564" y="412"/>
      <point x="360" y="349" type="curve"/>
      <point x="387" y="323"/>
      <point x="428" y="260"/>
      <point x="443" y="225" type="curve"/>
      <point x="659" y="305"/>
      <point x="854" y="470"/>
      <point x="947" y="712" type="curve"/>
      <point x="857" y="763" type="line"/>
    </contour>
  </outline>
</glyph>
<glyph name="ety070_cid21484_EL" format="1">
  <advance width="1000"/>
  <outline>
    <contour>
      <point x="820" y="315" type="line"/>
      <point x="537" y="315" type="line"/>
      <point x="517" y="285" type="line"/>
      <point x="820" y="285" type="line"/>
    </contour>
    <contour>
      <point x="819" y="316" type="line"/>
      <point x="812" y="316" type="line"/>
      <point x="812" y="309" type="line"/>
      <point x="732" y="111"/>
      <point x="533" y="5"/>
      <point x="317" y="-45" type="curve"/>
      <point x="324" y="-51"/>
      <point x="332" y="-63"/>
      <point x="336" y="-71" type="curve"/>
      <point x="556" y="-16"/>
      <point x="758" y="91"/>
      <point x="846" y="305" type="curve"/>
      <point x="826" y="318" type="line"/>
    </contour>
  </outline>
</glyph>
<glyph name="ety072_cid21780_EL" format="1">
  <advance width="1000"/>
  <outline>
    <contour>
      <point x="886" y="385" type="line"/>
      <point x="576" y="385" type="line"/>
      <point x="576" y="356" type="line"/>
      <point x="886" y="356" type="line"/>
    </contour>
    <contour>
      <point x="872" y="385" type="line"/>
      <point x="867" y="385" type="line"/>
      <point x="867" y="377" type="line"/>
      <point x="813" y="165"/>
      <point x="666" y="19"/>
      <point x="517" y="-46" type="curve"/>
      <point x="525" y="-52"/>
      <point x="533" y="-63"/>
      <point x="537" y="-69" type="curve"/>
      <point x="691" y="2"/>
      <point x="839" y="149"/>
      <point x="898" y="378" type="curve"/>
      <point x="879" y="387" type="line"/>
    </contour>
  </outline>
</glyph>
<glyph name="ety073_cid22141_EL" format="1">
  <advance width="1000"/>
  <outline>
    <contour>
      <point x="854" y="797" type="line"/>
      <point x="434" y="797" type="line"/>
      <point x="434" y="768" type="line"/>
      <point x="854" y="768" type="line"/>
    </contour>
    <contour>
      <point x="850" y="798" type="line"/>
      <point x="843" y="798" type="line"/>
      <point x="843" y="792" type="line"/>
      <point x="797" y="752"/>
      <point x="717" y="702"/>
      <point x="666" y="671" type="curve"/>
      <point x="672" y="668"/>
      <point x="681" y="659"/>
      <point x="686" y="653" type="curve"/>
      <point x="736" y="684"/>
      <point x="821" y="735"/>
      <point x="879" y="783" type="curve"/>
      <point x="857" y="801" type="line"/>
    </contour>
  </outline>
</glyph>
<glyph name="ety074_cid22234_EL" format="1">
  <advance width="1000"/>
  <outline>
    <contour>
      <point x="777" y="767" type="line"/>
      <point x="525" y="767" type="line"/>
      <point x="525" y="737" type="line"/>
      <point x="777" y="737" type="line"/>
    </contour>
    <contour>
      <point x="765" y="767" type="line"/>
      <point x="758" y="767" type="line"/>
      <point x="758" y="760" type="line"/>
      <point x="739" y="718"/>
      <point x="704" y="663"/>
      <point x="673" y="628" type="curve"/>
      <point x="680" y="624"/>
      <point x="688" y="617"/>
      <point x="694" y="612" type="curve"/>
      <point x="726" y="648"/>
      <point x="766" y="703"/>
      <point x="792" y="756" type="curve"/>
      <point x="770" y="768" type="line"/>
    </contour>
  </outline>
</glyph>
<glyph name="ety075_cid22707_EL" format="1">
  <advance width="1000"/>
  <outline>
    <contour>
      <point x="363" y="576" type="line"/>
      <point x="168" y="576" type="line"/>
      <point x="168" y="547" type="line"/>
      <point x="363" y="547" type="line"/>
    </contour>
    <contour>
      <point x="349" y="576" type="line"/>
      <point x="343" y="576" type="line"/>
      <point x="343" y="568" type="line"/>
      <point x="306" y="256"/>
      <point x="195" y="54"/>
      <point x="48" y="-52" type="curve"/>
      <point x="55" y="-57"/>
      <point x="67" y="-67"/>
      <point x="72" y="-74" type="curve"/>
      <point x="221" y="36"/>
      <point x="333" y="242"/>
      <point x="375" y="572" type="curve"/>
      <point x="356" y="578" type="line"/>
    </contour>
  </outline>
</glyph>
<glyph name="ety076_cid22739_EL" format="1">
  <advance width="1000"/>
  <outline>
    <contour>
      <point x="361" y="571" type="line"/>
      <point x="162" y="571" type="line"/>
      <point x="162" y="541" type="line"/>
      <point x="361" y="541" type="line"/>
    </contour>
    <contour>
      <point x="350" y="571" type="line"/>
      <point x="343" y="571" type="line"/>
      <point x="343" y="562" type="line"/>
      <point x="306" y="254"/>
      <point x="195" y="55"/>
      <point x="48" y="-50" type="curve"/>
      <point x="56" y="-55"/>
      <point x="67" y="-65"/>
      <point x="72" y="-72" type="curve"/>
      <point x="221" y="37"/>
      <point x="333" y="240"/>
      <point x="375" y="566" type="curve"/>
      <point x="356" y="572" type="line"/>
    </contour>
  </outline>
</glyph>
<glyph name="ety077_cid22772_EL" format="1">
  <advance width="1000"/>
  <outline>
    <contour>
      <point x="375" y="571" type="line"/>
      <point x="162" y="571" type="line"/>
      <point x="162" y="541" type="line"/>
      <point x="375" y="541" type="line"/>
    </contour>
    <contour>
      <point x="362" y="571" type="line"/>
      <point x="355" y="571" type="line"/>
      <point x="355" y="562" type="line"/>
      <point x="318" y="254"/>
      <point x="207" y="55"/>
      <point x="60" y="-50" type="curve"/>
      <point x="68" y="-55"/>
      <point x="79" y="-65"/>
      <point x="84" y="-72" type="curve"/>
      <point x="232" y="37"/>
      <point x="345" y="240"/>
      <point x="386" y="566" type="curve"/>
      <point x="368" y="572" type="line"/>
    </contour>
  </outline>
</glyph>
<glyph name="ety078_cid22818_H" format="1">
  <advance width="1000"/>
  <outline>
    <contour>
      <point x="841" y="419" type="line"/>
      <point x="512" y="419" type="line"/>
      <point x="512" y="292" type="line"/>
      <point x="841" y="292" type="line"/>
    </contour>
    <contour>
      <point x="839" y="418" type="line"/>
      <point x="813" y="418" type="line"/>
      <point x="813" y="398" type="line"/>
      <point x="774" y="209"/>
      <point x="649" y="79"/>
      <point x="462" y="27" type="curve"/>
      <point x="489" y="-2"/>
      <point x="523" y="-58"/>
      <point x="538" y="-94" type="curve"/>
      <point x="755" y="-16"/>
      <point x="895" y="131"/>
      <point x="950" y="394" type="curve"/>
      <point x="863" y="422" type="line"/>
    </contour>
  </outline>
</glyph>
<glyph name="ety079_cid22930_EL" format="1">
  <advance width="1000"/>
  <outline>
    <contour>
      <point x="489" y="234" type="line"/>
      <point x="74" y="234" type="line"/>
      <point x="74" y="205" type="line"/>
      <point x="489" y="205" type="line"/>
    </contour>
    <contour>
      <point x="482" y="235" type="line"/>
      <point x="476" y="235" type="line"/>
      <point x="476" y="229" type="line"/>
      <point x="411" y="93"/>
      <point x="242" y="10"/>
      <point x="84" y="-24" type="curve"/>
      <point x="90" y="-31"/>
      <point x="98" y="-42"/>
      <point x="102" y="-49" type="curve"/>
      <point x="267" y="-10"/>
      <point x="437" y="77"/>
      <point x="509" y="227" type="curve"/>
      <point x="489" y="237" type="line"/>
    </contour>
  </outline>
</glyph>
<glyph name="ety080_cid22943_H" format="1">
  <advance width="1000"/>
  <outline>
    <contour>
      <point x="735" y="797" type="line"/>
      <point x="550" y="797" type="line"/>
      <point x="517" y="731" type="line"/>
      <point x="735" y="731" type="line"/>
    </contour>
    <contour>
      <point x="734" y="798" type="line"/>
      <point x="707" y="798" type="line"/>
      <point x="707" y="780" type="line"/>
      <point x="690" y="755"/>
      <point x="653" y="717"/>
      <point x="622" y="694" type="curve"/>
      <point x="637" y="681"/>
      <point x="664" y="652"/>
      <point x="676" y="634" type="curve"/>
      <point x="725" y="664"/>
      <point x="779" y="708"/>
      <point x="821" y="749" type="curve"/>
      <point x="757" y="804" type="line"/>
    </contour>
  </outline>
</glyph>
<glyph name="ety081_cid23177_EL" format="1">
  <advance width="1000"/>
  <outline>
    <contour>
      <point x="241" y="550" type="line"/>
      <point x="60" y="550" type="line"/>
      <point x="60" y="521" type="line"/>
      <point x="241" y="521" type="line"/>
    </contour>
    <contour>
      <point x="230" y="550" type="line"/>
      <point x="224" y="550" type="line"/>
      <point x="224" y="542" type="line"/>
      <point x="202" y="312"/>
      <point x="134" y="135"/>
      <point x="51" y="53" type="curve"/>
      <point x="59" y="48"/>
      <point x="68" y="38"/>
      <point x="73" y="33" type="curve"/>
      <point x="161" y="123"/>
      <point x="229" y="299"/>
      <point x="252" y="546" type="curve"/>
      <point x="234" y="552" type="line"/>
    </contour>
  </outline>
</glyph>
<glyph name="ety082_cid23311_H" format="1">
  <advance width="1000"/>
  <outline>
    <contour>
      <point x="300" y="330" type="line"/>
      <point x="65" y="330" type="line"/>
      <point x="65" y="201" type="line"/>
      <point x="300" y="201" type="line"/>
    </contour>
    <contour>
      <point x="303" y="331" type="line"/>
      <point x="273" y="331" type="line"/>
      <point x="273" y="311" type="line"/>
      <point x="241" y="188"/>
      <point x="148" y="105"/>
      <point x="21" y="66" type="curve"/>
      <point x="46" y="40"/>
      <point x="87" y="-26"/>
      <point x="101" y="-61" type="curve"/>
      <point x="248" y="-6"/>
      <point x="365" y="111"/>
      <point x="415" y="296" type="curve"/>
      <point x="328" y="335" type="line"/>
    </contour>
  </outline>
</glyph>
<glyph name="ety083_cid23382_H" format="1">
  <advance width="1000"/>
  <outline>
    <contour>
      <point x="715" y="465" type="line"/>
      <point x="552" y="465" type="line"/>
      <point x="552" y="351" type="line"/>
      <point x="715" y="351" type="line"/>
    </contour>
    <contour>
      <point x="680" y="465" type="line"/>
      <point x="658" y="465" type="line"/>
      <point x="658" y="444" type="line"/>
      <point x="630" y="228"/>
      <point x="547" y="74"/>
      <point x="421" y="-6" type="curve"/>
      <point x="445" y="-23"/>
      <point x="484" y="-67"/>
      <point x="501" y="-92" type="curve"/>
      <point x="635" y="0"/>
      <point x="731" y="181"/>
      <point x="768" y="445" type="curve"/>
      <point x="699" y="468" type="line"/>
    </contour>
  </outline>
</glyph>
<glyph name="ety084_cid23497_H" format="1">
  <advance width="1000"/>
  <outline>
    <contour>
      <point x="769" y="293" type="line"/>
      <point x="426" y="293" type="line"/>
      <point x="426" y="184" type="line"/>
      <point x="769" y="184" type="line"/>
    </contour>
    <contour>
      <point x="783" y="292" type="line"/>
      <point x="757" y="292" type="line"/>
      <point x="757" y="277" type="line"/>
      <point x="699" y="120"/>
      <point x="527" y="48"/>
      <point x="295" y="25" type="curve"/>
      <point x="317" y="-4"/>
      <point x="343" y="-59"/>
      <point x="353" y="-93" type="curve"/>
      <point x="613" y="-53"/>
      <point x="806" y="39"/>
      <point x="887" y="265" type="curve"/>
      <point x="806" y="296" type="line"/>
    </contour>
  </outline>
</glyph>
<glyph name="ety085_cid23779_EL" format="1">
  <advance width="1000"/>
  <outline>
    <contour>
      <point x="848" y="281" type="line"/>
      <point x="406" y="281" type="line"/>
      <point x="406" y="252" type="line"/>
      <point x="848" y="252" type="line"/>
    </contour>
    <contour>
      <point x="849" y="282" type="line"/>
      <point x="842" y="282" type="line"/>
      <point x="842" y="276" type="line"/>
      <point x="768" y="91"/>
      <point x="560" y="-8"/>
      <point x="365" y="-44" type="curve"/>
      <point x="371" y="-51"/>
      <point x="378" y="-62"/>
      <point x="380" y="-69" type="curve"/>
      <point x="582" y="-26"/>
      <point x="791" y="75"/>
      <point x="872" y="274" type="curve"/>
      <point x="855" y="284" type="line"/>
    </contour>
  </outline>
</glyph>
<glyph name="ety086_cid25193_H" format="1">
  <advance width="1000"/>
  <outline>
    <contour>
      <point x="854" y="774" type="line"/>
      <point x="543" y="774" type="line"/>
      <point x="543" y="657" type="line"/>
      <point x="854" y="657" type="line"/>
    </contour>
    <contour>
      <point x="845" y="772" type="line"/>
      <point x="821" y="772" type="line"/>
      <point x="821" y="749" type="line"/>
      <point x="786" y="540"/>
      <point x="672" y="368"/>
      <point x="509" y="294" type="curve"/>
      <point x="537" y="267"/>
      <point x="573" y="213"/>
      <point x="590" y="178" type="curve"/>
      <point x="779" y="282"/>
      <point x="903" y="465"/>
      <point x="952" y="746" type="curve"/>
      <point x="867" y="776" type="line"/>
    </contour>
  </outline>
</glyph>
<glyph name="ety087_cid25217_H" format="1">
  <advance width="1000"/>
  <outline>
    <contour>
      <point x="820" y="743" type="line"/>
      <point x="590" y="743" type="line"/>
      <point x="526" y="615" type="line"/>
      <point x="820" y="615" type="line"/>
    </contour>
    <contour>
      <point x="814" y="744" type="line"/>
      <point x="782" y="744" type="line"/>
      <point x="782" y="717" type="line"/>
      <point x="760" y="662"/>
      <point x="700" y="567"/>
      <point x="646" y="506" type="curve"/>
      <point x="677" y="489"/>
      <point x="724" y="458"/>
      <point x="752" y="437" type="curve"/>
      <point x="814" y="505"/>
      <point x="890" y="610"/>
      <point x="933" y="688" type="curve"/>
      <point x="836" y="750" type="line"/>
    </contour>
  </outline>
</glyph>
<glyph name="ety089_cid27296_EL" format="1">
  <advance width="1000"/>
  <outline>
    <contour>
      <point x="798" y="563" type="line"/>
      <point x="791" y="563" type="line"/>
      <point x="791" y="556" type="line"/>
      <point x="700" y="367"/>
      <point x="462" y="248"/>
      <point x="254" y="204" type="curve"/>
      <point x="260" y="198"/>
      <point x="267" y="186"/>
      <point x="270" y="179" type="curve"/>
      <point x="482" y="229"/>
      <point x="723" y="347"/>
      <point x="821" y="553" type="curve"/>
      <point x="804" y="565" type="line"/>
    </contour>
    <contour>
      <point x="799" y="564" type="line"/>
      <point x="485" y="564" type="line"/>
      <point x="468" y="534" type="line"/>
      <point x="799" y="534" type="line"/>
    </contour>
  </outline>
</glyph>
<glyph name="ety090_cid27971_EL" format="1">
  <advance width="1000"/>
  <outline>
    <contour>
      <point x="846" y="719" type="line"/>
      <point x="572" y="719" type="line"/>
      <point x="557" y="689" type="line"/>
      <point x="846" y="689" type="line"/>
    </contour>
    <contour>
      <point x="837" y="719" type="line"/>
      <point x="831" y="719" type="line"/>
      <point x="831" y="711" type="line"/>
      <point x="754" y="472"/>
      <point x="546" y="295"/>
      <point x="363" y="226" type="curve"/>
      <point x="370" y="220"/>
      <point x="378" y="209"/>
      <point x="381" y="201" type="curve"/>
      <point x="570" y="278"/>
      <point x="777" y="455"/>
      <point x="861" y="711" type="curve"/>
      <point x="843" y="720" type="line"/>
    </contour>
  </outline>
</glyph>
<glyph name="ety091_cid28572_H" format="1">
  <advance width="1000"/>
  <outline>
    <contour>
      <point x="873" y="409" type="line"/>
      <point x="607" y="409" type="line"/>
      <point x="607" y="288" type="line"/>
      <point x="873" y="288" type="line"/>
    </contour>
    <contour>
      <point x="848" y="411" type="line"/>
      <point x="823" y="411" type="line"/>
      <point x="823" y="393" type="line"/>
      <point x="794" y="198"/>
      <point x="694" y="70"/>
      <point x="526" y="20" type="curve"/>
      <point x="551" y="-7"/>
      <point x="583" y="-61"/>
      <point x="597" y="-95" type="curve"/>
      <point x="798" y="-20"/>
      <point x="913" y="125"/>
      <point x="953" y="395" type="curve"/>
      <point x="871" y="414" type="line"/>
    </contour>
  </outline>
</glyph>
<glyph name="ety092_cid28886_H" format="1">
  <advance width="1000"/>
  <outline>
    <contour>
      <point x="341" y="691" type="line"/>
      <point x="39" y="691" type="line"/>
      <point x="39" y="561" type="line"/>
      <point x="341" y="561" type="line"/>
    </contour>
    <contour>
      <point x="302" y="690" type="line"/>
      <point x="273" y="690" type="line"/>
      <point x="273" y="665" type="line"/>
      <point x="232" y="534"/>
      <point x="128" y="397"/>
      <point x="14" y="330" type="curve"/>
      <point x="30" y="301"/>
      <point x="58" y="219"/>
      <point x="66" y="177" type="curve"/>
      <point x="203" y="270"/>
      <point x="337" y="450"/>
      <point x="403" y="642" type="curve"/>
      <point x="327" y="695" type="line"/>
    </contour>
  </outline>
</glyph>
<glyph name="ety093_cid29175_EL" format="1">
  <advance width="1000"/>
  <outline>
    <contour>
      <point x="849" y="729" type="line"/>
      <point x="592" y="729" type="line"/>
      <point x="566" y="700" type="line"/>
      <point x="849" y="700" type="line"/>
    </contour>
    <contour>
      <point x="852" y="728" type="line"/>
      <point x="845" y="728" type="line"/>
      <point x="845" y="721" type="line"/>
      <point x="767" y="559"/>
      <point x="567" y="458"/>
      <point x="385" y="415" type="curve"/>
      <point x="391" y="409"/>
      <point x="399" y="398"/>
      <point x="402" y="391" type="curve"/>
      <point x="589" y="439"/>
      <point x="790" y="542"/>
      <point x="876" y="719" type="curve"/>
      <point x="858" y="730" type="line"/>
    </contour>
  </outline>
</glyph>
<glyph name="ety094_cid30060_H" format="1">
  <advance width="1000"/>
  <outline>
    <contour>
      <point x="851" y="602" type="line"/>
      <point x="406" y="602" type="line"/>
      <point x="406" y="492" type="line"/>
      <point x="851" y="492" type="line"/>
    </contour>
    <contour>
      <point x="842" y="603" type="line"/>
      <point x="817" y="603" type="line"/>
      <point x="817" y="586" type="line"/>
      <point x="754" y="459"/>
      <point x="580" y="387"/>
      <point x="380" y="361" type="curve"/>
      <point x="402" y="335"/>
      <point x="429" y="286"/>
      <point x="441" y="255" type="curve"/>
      <point x="668" y="297"/>
      <point x="859" y="383"/>
      <point x="948" y="568" type="curve"/>
      <point x="864" y="608" type="line"/>
    </contour>
  </outline>
</glyph>
<glyph name="ety095_cid31079_H" format="1">
  <advance width="1000"/>
  <outline>
    <contour>
      <point x="821" y="296" type="line"/>
      <point x="492" y="296" type="line"/>
      <point x="492" y="191" type="line"/>
      <point x="821" y="191" type="line"/>
    </contour>
    <contour>
      <point x="815" y="298" type="line"/>
      <point x="788" y="298" type="line"/>
      <point x="788" y="282" type="line"/>
      <point x="740" y="128"/>
      <point x="598" y="49"/>
      <point x="392" y="23" type="curve"/>
      <point x="415" y="-7"/>
      <point x="443" y="-62"/>
      <point x="455" y="-97" type="curve"/>
      <point x="694" y="-52"/>
      <point x="857" y="47"/>
      <point x="925" y="274" type="curve"/>
      <point x="839" y="302" type="line"/>
    </contour>
  </outline>
</glyph>
<glyph name="ety096_cid31180_H" format="1">
  <advance width="1000"/>
  <outline>
    <contour>
      <point x="596" y="821" type="line"/>
      <point x="388" y="821" type="line"/>
      <point x="388" y="702" type="line"/>
      <point x="596" y="702" type="line"/>
    </contour>
    <contour>
      <point x="564" y="821" type="line"/>
      <point x="540" y="821" type="line"/>
      <point x="540" y="801" type="line"/>
      <point x="519" y="648"/>
      <point x="457" y="535"/>
      <point x="363" y="474" type="curve"/>
      <point x="391" y="458"/>
      <point x="441" y="414"/>
      <point x="461" y="391" type="curve"/>
      <point x="561" y="463"/>
      <point x="631" y="598"/>
      <point x="661" y="799" type="curve"/>
      <point x="585" y="824" type="line"/>
    </contour>
  </outline>
</glyph>
<glyph name="ety097_cid31273_EL" format="1">
  <advance width="1000"/>
  <outline>
    <contour>
      <point x="920" y="372" type="line"/>
      <point x="634" y="372" type="line"/>
      <point x="634" y="342" type="line"/>
      <point x="920" y="342" type="line"/>
    </contour>
    <contour>
      <point x="891" y="372" type="line"/>
      <point x="885" y="372" type="line"/>
      <point x="885" y="364" type="line"/>
      <point x="842" y="140"/>
      <point x="710" y="9"/>
      <point x="562" y="-47" type="curve"/>
      <point x="569" y="-53"/>
      <point x="577" y="-64"/>
      <point x="581" y="-71" type="curve"/>
      <point x="734" y="-8"/>
      <point x="868" y="126"/>
      <point x="916" y="366" type="curve"/>
      <point x="897" y="374" type="line"/>
    </contour>
  </outline>
</glyph>
<glyph name="ety098_cid31455_EL" format="1">
  <advance width="1000"/>
  <outline>
    <contour>
      <point x="883" y="238" type="line"/>
      <point x="424" y="238" type="line"/>
      <point x="424" y="209" type="line"/>
      <point x="883" y="209" type="line"/>
    </contour>
    <contour>
      <point x="882" y="239" type="line"/>
      <point x="873" y="239" type="line"/>
      <point x="873" y="232" type="line"/>
      <point x="783" y="77"/>
      <point x="567" y="-7"/>
      <point x="346" y="-44" type="curve"/>
      <point x="354" y="-51"/>
      <point x="363" y="-64"/>
      <point x="367" y="-71" type="curve"/>
      <point x="590" y="-29"/>
      <point x="810" y="56"/>
      <point x="910" y="227" type="curve"/>
      <point x="889" y="241" type="line"/>
    </contour>
  </outline>
</glyph>
<glyph name="ety099_cid31774_EL" format="1">
  <advance width="1000"/>
  <outline>
    <contour>
      <point x="820" y="315" type="line"/>
      <point x="542" y="315" type="line"/>
      <point x="522" y="285" type="line"/>
      <point x="820" y="285" type="line"/>
    </contour>
    <contour>
      <point x="819" y="316" type="line"/>
      <point x="812" y="316" type="line"/>
      <point x="812" y="309" type="line"/>
      <point x="737" y="114"/>
      <point x="551" y="6"/>
      <point x="346" y="-45" type="curve"/>
      <point x="353" y="-51"/>
      <point x="363" y="-63"/>
      <point x="367" y="-70" type="curve"/>
      <point x="574" y="-15"/>
      <point x="763" y="95"/>
      <point x="846" y="306" type="curve"/>
      <point x="826" y="318" type="line"/>
    </contour>
  </outline>
</glyph>
<glyph name="ety100_cid32131_H" format="1">
  <advance width="1000"/>
  <outline>
    <contour>
      <point x="778" y="235" type="line"/>
      <point x="314" y="235" type="line"/>
      <point x="314" y="138" type="line"/>
      <point x="778" y="138" type="line"/>
    </contour>
    <contour>
      <point x="768" y="236" type="line"/>
      <point x="742" y="236" type="line"/>
      <point x="742" y="218" type="line"/>
      <point x="664" y="97"/>
      <point x="458" y="37"/>
      <point x="227" y="17" type="curve"/>
      <point x="250" y="-8"/>
      <point x="283" y="-62"/>
      <point x="295" y="-93" type="curve"/>
      <point x="535" y="-59"/>
      <point x="761" y="19"/>
      <point x="870" y="188" type="curve"/>
      <point x="790" y="240" type="line"/>
    </contour>
  </outline>
</glyph>
<glyph name="ety101_cid32739_H" format="1">
  <advance width="1000"/>
  <outline>
    <contour>
      <point x="836" y="815" type="line"/>
      <point x="507" y="815" type="line"/>
      <point x="507" y="702" type="line"/>
      <point x="836" y="702" type="line"/>
    </contour>
    <contour>
      <point x="830" y="816" type="line"/>
      <point x="805" y="816" type="line"/>
      <point x="805" y="798" type="line"/>
      <point x="771" y="652"/>
      <point x="666" y="544"/>
      <point x="515" y="500" type="curve"/>
      <point x="541" y="472"/>
      <point x="574" y="418"/>
      <point x="588" y="385" type="curve"/>
      <point x="768" y="452"/>
      <point x="887" y="579"/>
      <point x="936" y="793" type="curve"/>
      <point x="853" y="820" type="line"/>
    </contour>
  </outline>
</glyph>
<glyph name="ety102_cid32739_H" format="1">
  <advance width="1000"/>
  <outline>
    <contour>
      <point x="422" y="774" type="line"/>
      <point x="39" y="774" type="line"/>
      <point x="39" y="660" type="line"/>
      <point x="422" y="660" type="line"/>
    </contour>
    <contour>
      <point x="418" y="775" type="line"/>
      <point x="392" y="775" type="line"/>
      <point x="392" y="760" type="line"/>
      <point x="351" y="589"/>
      <point x="225" y="507"/>
      <point x="28" y="480" type="curve"/>
      <point x="50" y="452"/>
      <point x="76" y="402"/>
      <point x="88" y="369" type="curve"/>
      <point x="321" y="415"/>
      <point x="466" y="514"/>
      <point x="524" y="756" type="curve"/>
      <point x="443" y="778" type="line"/>
    </contour>
  </outline>
</glyph>
<glyph name="ety104_cid33028_H" format="1">
  <advance width="1000"/>
  <outline>
    <contour>
      <point x="874" y="409" type="line"/>
      <point x="610" y="409" type="line"/>
      <point x="610" y="288" type="line"/>
      <point x="874" y="288" type="line"/>
    </contour>
    <contour>
      <point x="850" y="411" type="line"/>
      <point x="825" y="411" type="line"/>
      <point x="825" y="393" type="line"/>
      <point x="796" y="198"/>
      <point x="697" y="70"/>
      <point x="530" y="20" type="curve"/>
      <point x="555" y="-7"/>
      <point x="587" y="-61"/>
      <point x="601" y="-95" type="curve"/>
      <point x="800" y="-20"/>
      <point x="914" y="125"/>
      <point x="954" y="395" type="curve"/>
      <point x="873" y="414" type="line"/>
    </contour>
  </outline>
</glyph>
<glyph name="ety105_cid33029_H" format="1">
  <advance width="1000"/>
  <outline>
    <contour>
      <point x="876" y="409" type="line"/>
      <point x="610" y="409" type="line"/>
      <point x="610" y="288" type="line"/>
      <point x="876" y="288" type="line"/>
    </contour>
    <contour>
      <point x="850" y="411" type="line"/>
      <point x="825" y="411" type="line"/>
      <point x="825" y="393" type="line"/>
      <point x="796" y="198"/>
      <point x="696" y="70"/>
      <point x="528" y="20" type="curve"/>
      <point x="553" y="-7"/>
      <point x="585" y="-61"/>
      <point x="599" y="-95" type="curve"/>
      <point x="800" y="-20"/>
      <point x="915" y="125"/>
      <point x="955" y="395" type="curve"/>
      <point x="873" y="414" type="line"/>
    </contour>
  </outline>
</glyph>
<glyph name="ety106_cid35225_H" format="1">
  <advance width="1000"/>
  <outline>
    <contour>
      <point x="873" y="348" type="line"/>
      <point x="562" y="348" type="line"/>
      <point x="562" y="240" type="line"/>
      <point x="873" y="240" type="line"/>
    </contour>
    <contour>
      <point x="868" y="349" type="line"/>
      <point x="844" y="349" type="line"/>
      <point x="844" y="328" type="line"/>
      <point x="809" y="174"/>
      <point x="715" y="55"/>
      <point x="593" y="-6" type="curve"/>
      <point x="620" y="-25"/>
      <point x="664" y="-71"/>
      <point x="681" y="-97" type="curve"/>
      <point x="810" y="-23"/>
      <point x="916" y="119"/>
      <point x="964" y="320" type="curve"/>
      <point x="888" y="353" type="line"/>
    </contour>
  </outline>
</glyph>
<glyph name="ety107_cid35248_EL" format="1">
  <advance width="1000"/>
  <outline>
    <contour>
      <point x="773" y="570" type="line"/>
      <point x="561" y="570" type="line"/>
      <point x="546" y="540" type="line"/>
      <point x="773" y="540" type="line"/>
    </contour>
    <contour>
      <point x="771" y="569" type="line"/>
      <point x="765" y="569" type="line"/>
      <point x="765" y="562" type="line"/>
      <point x="745" y="517"/>
      <point x="710" y="460"/>
      <point x="680" y="423" type="curve"/>
      <point x="686" y="419"/>
      <point x="695" y="413"/>
      <point x="700" y="408" type="curve"/>
      <point x="731" y="445"/>
      <point x="771" y="503"/>
      <point x="799" y="558" type="curve"/>
      <point x="778" y="571" type="line"/>
    </contour>
  </outline>
</glyph>
<glyph name="ety108_cid35423_H" format="1">
  <advance width="1000"/>
  <outline>
    <contour>
      <point x="850" y="367" type="line"/>
      <point x="521" y="367" type="line"/>
      <point x="521" y="251" type="line"/>
      <point x="850" y="251" type="line"/>
    </contour>
    <contour>
      <point x="847" y="368" type="line"/>
      <point x="822" y="368" type="line"/>
      <point x="822" y="350" type="line"/>
      <point x="780" y="174"/>
      <point x="647" y="62"/>
      <point x="460" y="18" type="curve"/>
      <point x="485" y="-9"/>
      <point x="515" y="-62"/>
      <point x="529" y="-95" type="curve"/>
      <point x="745" y="-29"/>
      <point x="893" y="100"/>
      <point x="952" y="344" type="curve"/>
      <point x="869" y="372" type="line"/>
    </contour>
  </outline>
</glyph>
<glyph name="ety110_cid36778_EL" format="1">
  <advance width="1000"/>
  <outline>
    <contour>
      <point x="340" y="645" type="line"/>
      <point x="62" y="645" type="line"/>
      <point x="62" y="616" type="line"/>
      <point x="340" y="616" type="line"/>
    </contour>
    <contour>
      <point x="341" y="646" type="line"/>
      <point x="334" y="646" type="line"/>
      <point x="334" y="637" type="line"/>
      <point x="278" y="484"/>
      <point x="148" y="323"/>
      <point x="36" y="232" type="curve"/>
      <point x="43" y="229"/>
      <point x="53" y="219"/>
      <point x="58" y="212" type="curve"/>
      <point x="172" y="308"/>
      <point x="302" y="470"/>
      <point x="366" y="637" type="curve"/>
      <point x="348" y="648" type="line"/>
    </contour>
  </outline>
</glyph>
<glyph name="ety111_cid36809_H" format="1">
  <advance width="1000"/>
  <outline>
    <contour>
      <point x="281" y="690" type="line"/>
      <point x="41" y="690" type="line"/>
      <point x="41" y="560" type="line"/>
      <point x="281" y="560" type="line"/>
    </contour>
    <contour>
      <point x="270" y="691" type="line"/>
      <point x="243" y="691" type="line"/>
      <point x="243" y="664" type="line"/>
      <point x="205" y="523"/>
      <point x="113" y="361"/>
      <point x="12" y="278" type="curve"/>
      <point x="33" y="252"/>
      <point x="69" y="180"/>
      <point x="81" y="142" type="curve"/>
      <point x="197" y="250"/>
      <point x="312" y="449"/>
      <point x="370" y="648" type="curve"/>
      <point x="294" y="696" type="line"/>
    </contour>
  </outline>
</glyph>
<glyph name="ety112_cid36814_EL" format="1">
  <advance width="1000"/>
  <outline>
    <contour>
      <point x="350" y="645" type="line"/>
      <point x="53" y="645" type="line"/>
      <point x="53" y="616" type="line"/>
      <point x="350" y="616" type="line"/>
    </contour>
    <contour>
      <point x="339" y="645" type="line"/>
      <point x="332" y="645" type="line"/>
      <point x="332" y="635" type="line"/>
      <point x="275" y="483"/>
      <point x="145" y="322"/>
      <point x="35" y="231" type="curve"/>
      <point x="41" y="227"/>
      <point x="51" y="216"/>
      <point x="56" y="208" type="curve"/>
      <point x="168" y="304"/>
      <point x="299" y="467"/>
      <point x="364" y="634" type="curve"/>
      <point x="346" y="647" type="line"/>
    </contour>
  </outline>
</glyph>
<glyph name="ety113_cid36830_EL" format="1">
  <advance width="1000"/>
  <outline>
    <contour>
      <point x="363" y="644" type="line"/>
      <point x="49" y="644" type="line"/>
      <point x="49" y="615" type="line"/>
      <point x="363" y="615" type="line"/>
    </contour>
    <contour>
      <point x="362" y="643" type="line"/>
      <point x="355" y="643" type="line"/>
      <point x="355" y="634" type="line"/>
      <point x="294" y="481"/>
      <point x="160" y="318"/>
      <point x="44" y="226" type="curve"/>
      <point x="51" y="222"/>
      <point x="61" y="212"/>
      <point x="66" y="205" type="curve"/>
      <point x="182" y="303"/>
      <point x="320" y="467"/>
      <point x="386" y="633" type="curve"/>
      <point x="369" y="645" type="line"/>
    </contour>
  </outline>
</glyph>
<glyph name="ety114_cid36885_EL" format="1">
  <advance width="1000"/>
  <outline>
    <contour>
      <point x="289" y="624" type="line"/>
      <point x="64" y="624" type="line"/>
      <point x="64" y="595" type="line"/>
      <point x="289" y="595" type="line"/>
    </contour>
    <contour>
      <point x="286" y="622" type="line"/>
      <point x="280" y="622" type="line"/>
      <point x="280" y="613" type="line"/>
      <point x="233" y="457"/>
      <point x="128" y="292"/>
      <point x="32" y="198" type="curve"/>
      <point x="39" y="193"/>
      <point x="49" y="184"/>
      <point x="54" y="178" type="curve"/>
      <point x="151" y="278"/>
      <point x="258" y="443"/>
      <point x="311" y="614" type="curve"/>
      <point x="292" y="624" type="line"/>
    </contour>
  </outline>
</glyph>
<glyph name="ety115_cid36886_H" format="1">
  <advance width="1000"/>
  <outline>
    <contour>
      <point x="801" y="493" type="line"/>
      <point x="774" y="493" type="line"/>
      <point x="774" y="478" type="line"/>
      <point x="671" y="340"/>
      <point x="391" y="278"/>
      <point x="95" y="259" type="curve"/>
      <point x="116" y="235"/>
      <point x="139" y="193"/>
      <point x="149" y="165" type="curve"/>
      <point x="472" y="195"/>
      <point x="771" y="267"/>
      <point x="912" y="453" type="curve"/>
      <point x="823" y="498" type="line"/>
    </contour>
    <contour>
      <point x="798" y="491" type="line"/>
      <point x="626" y="491" type="line"/>
      <point x="531" y="406" type="line"/>
      <point x="798" y="406" type="line"/>
    </contour>
  </outline>
</glyph>
<glyph name="ety116_cid36887_H" format="1">
  <advance width="1000"/>
  <outline>
    <contour>
      <point x="617" y="670" type="line"/>
      <point x="596" y="670" type="line"/>
      <point x="596" y="655" type="line"/>
      <point x="502" y="548"/>
      <point x="253" y="480"/>
      <point x="32" y="456" type="curve"/>
      <point x="50" y="434"/>
      <point x="73" y="392"/>
      <point x="82" y="366" type="curve"/>
      <point x="319" y="401"/>
      <point x="582" y="479"/>
      <point x="707" y="628" type="curve"/>
      <point x="635" y="675" type="line"/>
    </contour>
    <contour>
      <point x="644" y="670" type="line"/>
      <point x="436" y="670" type="line"/>
      <point x="364" y="592" type="line"/>
      <point x="644" y="592" type="line"/>
    </contour>
  </outline>
</glyph>
<glyph name="ety117_cid36959_EL" format="1">
  <advance width="1000"/>
  <outline>
    <contour>
      <point x="350" y="645" type="line"/>
      <point x="53" y="645" type="line"/>
      <point x="53" y="616" type="line"/>
      <point x="350" y="616" type="line"/>
    </contour>
    <contour>
      <point x="335" y="645" type="line"/>
      <point x="329" y="645" type="line"/>
      <point x="329" y="635" type="line"/>
      <point x="274" y="484"/>
      <point x="151" y="323"/>
      <point x="45" y="231" type="curve"/>
      <point x="52" y="227"/>
      <point x="63" y="216"/>
      <point x="68" y="208" type="curve"/>
      <point x="174" y="305"/>
      <point x="299" y="469"/>
      <point x="360" y="634" type="curve"/>
      <point x="342" y="647" type="line"/>
    </contour>
  </outline>
</glyph>
<glyph name="ety119_cid36977_EL" format="1">
  <advance width="1000"/>
  <outline>
    <contour>
      <point x="350" y="645" type="line"/>
      <point x="53" y="645" type="line"/>
      <point x="53" y="616" type="line"/>
      <point x="350" y="616" type="line"/>
    </contour>
    <contour>
      <point x="340" y="645" type="line"/>
      <point x="333" y="645" type="line"/>
      <point x="333" y="635" type="line"/>
      <point x="276" y="483"/>
      <point x="146" y="322"/>
      <point x="35" y="231" type="curve"/>
      <point x="42" y="227"/>
      <point x="52" y="216"/>
      <point x="57" y="208" type="curve"/>
      <point x="169" y="304"/>
      <point x="300" y="467"/>
      <point x="365" y="634" type="curve"/>
      <point x="347" y="647" type="line"/>
    </contour>
  </outline>
</glyph>
<glyph name="ety120_cid37041_EL" format="1">
  <advance width="1000"/>
  <outline>
    <contour>
      <point x="349" y="645" type="line"/>
      <point x="53" y="645" type="line"/>
      <point x="53" y="616" type="line"/>
      <point x="349" y="616" type="line"/>
    </contour>
    <contour>
      <point x="347" y="644" type="line"/>
      <point x="340" y="644" type="line"/>
      <point x="340" y="634" type="line"/>
      <point x="282" y="476"/>
      <point x="153" y="304"/>
      <point x="41" y="207" type="curve"/>
      <point x="49" y="202"/>
      <point x="60" y="191"/>
      <point x="65" y="184" type="curve"/>
      <point x="178" y="287"/>
      <point x="309" y="461"/>
      <point x="374" y="634" type="curve"/>
      <point x="354" y="646" type="line"/>
    </contour>
  </outline>
</glyph>
<glyph name="ety121_cid37117_H" format="1">
  <advance width="1000"/>
  <outline>
    <contour>
      <point x="295" y="690" type="line"/>
      <point x="38" y="690" type="line"/>
      <point x="38" y="560" type="line"/>
      <point x="295" y="560" type="line"/>
    </contour>
    <contour>
      <point x="265" y="690" type="line"/>
      <point x="239" y="690" type="line"/>
      <point x="239" y="665" type="line"/>
      <point x="201" y="529"/>
      <point x="109" y="369"/>
      <point x="12" y="285" type="curve"/>
      <point x="31" y="261"/>
      <point x="64" y="190"/>
      <point x="75" y="153" type="curve"/>
      <point x="185" y="261"/>
      <point x="300" y="458"/>
      <point x="358" y="647" type="curve"/>
      <point x="287" y="695" type="line"/>
    </contour>
  </outline>
</glyph>
<glyph name="ety122_cid37130_EL" format="1">
  <advance width="1000"/>
  <outline>
    <contour>
      <point x="325" y="635" type="line"/>
      <point x="59" y="635" type="line"/>
      <point x="59" y="606" type="line"/>
      <point x="325" y="606" type="line"/>
    </contour>
    <contour>
      <point x="314" y="635" type="line"/>
      <point x="307" y="635" type="line"/>
      <point x="307" y="626" type="line"/>
      <point x="257" y="468"/>
      <point x="142" y="305"/>
      <point x="37" y="214" type="curve"/>
      <point x="45" y="210"/>
      <point x="55" y="200"/>
      <point x="60" y="193" type="curve"/>
      <point x="166" y="290"/>
      <point x="281" y="454"/>
      <point x="338" y="626" type="curve"/>
      <point x="321" y="637" type="line"/>
    </contour>
  </outline>
</glyph>
<glyph name="ety123_cid37217_H" format="1">
  <advance width="1000"/>
  <outline>
    <contour>
      <point x="278" y="690" type="line"/>
      <point x="40" y="690" type="line"/>
      <point x="40" y="560" type="line"/>
      <point x="278" y="560" type="line"/>
    </contour>
    <contour>
      <point x="256" y="691" type="line"/>
      <point x="230" y="691" type="line"/>
      <point x="230" y="664" type="line"/>
      <point x="195" y="538"/>
      <point x="110" y="391"/>
      <point x="21" y="315" type="curve"/>
      <point x="39" y="288"/>
      <point x="71" y="209"/>
      <point x="81" y="168" type="curve"/>
      <point x="185" y="270"/>
      <point x="293" y="458"/>
      <point x="349" y="642" type="curve"/>
      <point x="279" y="697" type="line"/>
    </contour>
  </outline>
</glyph>
<glyph name="ety124_cid37233_EL" format="1">
  <advance width="1000"/>
  <outline>
    <contour>
      <point x="330" y="645" type="line"/>
      <point x="52" y="645" type="line"/>
      <point x="52" y="616" type="line"/>
      <point x="330" y="616" type="line"/>
    </contour>
    <contour>
      <point x="319" y="645" type="line"/>
      <point x="312" y="645" type="line"/>
      <point x="312" y="635" type="line"/>
      <point x="259" y="491"/>
      <point x="141" y="333"/>
      <point x="39" y="244" type="curve"/>
      <point x="46" y="239"/>
      <point x="57" y="230"/>
      <point x="62" y="224" type="curve"/>
      <point x="165" y="319"/>
      <point x="284" y="477"/>
      <point x="343" y="636" type="curve"/>
      <point x="326" y="647" type="line"/>
    </contour>
  </outline>
</glyph>
<glyph name="ety125_cid37239_H" format="1">
  <advance width="1000"/>
  <outline>
    <contour>
      <point x="306" y="690" type="line"/>
      <point x="40" y="690" type="line"/>
      <point x="40" y="560" type="line"/>
      <point x="306" y="560" type="line"/>
    </contour>
    <contour>
      <point x="271" y="690" type="line"/>
      <point x="244" y="690" type="line"/>
      <point x="244" y="663" type="line"/>
      <point x="202" y="533"/>
      <point x="103" y="373"/>
      <point x="5" y="289" type="curve"/>
      <point x="25" y="264"/>
      <point x="59" y="189"/>
      <point x="70" y="150" type="curve"/>
      <point x="183" y="260"/>
      <point x="304" y="457"/>
      <point x="369" y="642" type="curve"/>
      <point x="295" y="696" type="line"/>
    </contour>
  </outline>
</glyph>
<glyph name="ety127_cid37272_H" format="1">
  <advance width="1000"/>
  <outline>
    <contour>
      <point x="254" y="689" type="line"/>
      <point x="51" y="689" type="line"/>
      <point x="51" y="564" type="line"/>
      <point x="254" y="564" type="line"/>
    </contour>
    <contour>
      <point x="243" y="690" type="line"/>
      <point x="219" y="690" type="line"/>
      <point x="219" y="665" type="line"/>
      <point x="184" y="532"/>
      <point x="102" y="369"/>
      <point x="18" y="281" type="curve"/>
      <point x="37" y="258"/>
      <point x="69" y="190"/>
      <point x="80" y="156" type="curve"/>
      <point x="176" y="268"/>
      <point x="279" y="466"/>
      <point x="332" y="649" type="curve"/>
      <point x="265" y="695" type="line"/>
    </contour>
  </outline>
</glyph>
<glyph name="ety129_cid37285_EL" format="1">
  <advance width="1000"/>
  <outline>
    <contour>
      <point x="288" y="644" type="line"/>
      <point x="67" y="644" type="line"/>
      <point x="67" y="615" type="line"/>
      <point x="288" y="615" type="line"/>
    </contour>
    <contour>
      <point x="277" y="644" type="line"/>
      <point x="270" y="644" type="line"/>
      <point x="270" y="634" type="line"/>
      <point x="225" y="479"/>
      <point x="123" y="314"/>
      <point x="31" y="219" type="curve"/>
      <point x="37" y="215"/>
      <point x="48" y="206"/>
      <point x="54" y="199" type="curve"/>
      <point x="147" y="299"/>
      <point x="250" y="466"/>
      <point x="301" y="635" type="curve"/>
      <point x="282" y="646" type="line"/>
    </contour>
  </outline>
</glyph>
<glyph name="ety131_cid37309_EL" format="1">
  <advance width="1000"/>
  <outline>
    <contour>
      <point x="309" y="635" type="line"/>
      <point x="61" y="635" type="line"/>
      <point x="61" y="606" type="line"/>
      <point x="309" y="606" type="line"/>
    </contour>
    <contour>
      <point x="299" y="635" type="line"/>
      <point x="292" y="635" type="line"/>
      <point x="292" y="625" type="line"/>
      <point x="243" y="468"/>
      <point x="132" y="301"/>
      <point x="32" y="206" type="curve"/>
      <point x="39" y="202"/>
      <point x="49" y="193"/>
      <point x="55" y="186" type="curve"/>
      <point x="156" y="286"/>
      <point x="269" y="454"/>
      <point x="324" y="626" type="curve"/>
      <point x="305" y="637" type="line"/>
    </contour>
  </outline>
</glyph>
<glyph name="ety132_cid37414_H" format="1">
  <advance width="1000"/>
  <outline>
    <contour>
      <point x="214" y="822" type="line"/>
      <point x="60" y="822" type="line"/>
      <point x="60" y="710" type="line"/>
      <point x="214" y="710" type="line"/>
    </contour>
    <contour>
      <point x="188" y="824" type="line"/>
      <point x="166" y="824" type="line"/>
      <point x="166" y="805" type="line"/>
      <point x="148" y="688"/>
      <point x="90" y="568"/>
      <point x="8" y="511" type="curve"/>
      <point x="34" y="489"/>
      <point x="70" y="445"/>
      <point x="87" y="417" type="curve"/>
      <point x="193" y="495"/>
      <point x="260" y="629"/>
      <point x="289" y="802" type="curve"/>
      <point x="209" y="828" type="line"/>
    </contour>
  </outline>
</glyph>
<glyph name="ety133_cid37792_EL" format="1">
  <advance width="1000"/>
  <outline>
    <contour>
      <point x="850" y="719" type="line"/>
      <point x="592" y="719" type="line"/>
      <point x="578" y="689" type="line"/>
      <point x="850" y="689" type="line"/>
    </contour>
    <contour>
      <point x="842" y="719" type="line"/>
      <point x="836" y="719" type="line"/>
      <point x="836" y="711" type="line"/>
      <point x="763" y="472"/>
      <point x="569" y="295"/>
      <point x="396" y="226" type="curve"/>
      <point x="402" y="220"/>
      <point x="410" y="209"/>
      <point x="413" y="201" type="curve"/>
      <point x="590" y="278"/>
      <point x="786" y="455"/>
      <point x="865" y="711" type="curve"/>
      <point x="847" y="720" type="line"/>
    </contour>
  </outline>
</glyph>
<glyph name="ety134_cid37939_H" format="1">
  <advance width="1000"/>
  <outline>
    <contour>
      <point x="837" y="744" type="line"/>
      <point x="574" y="744" type="line"/>
      <point x="516" y="616" type="line"/>
      <point x="837" y="616" type="line"/>
    </contour>
    <contour>
      <point x="821" y="745" type="line"/>
      <point x="792" y="745" type="line"/>
      <point x="792" y="718" type="line"/>
      <point x="775" y="669"/>
      <point x="730" y="583"/>
      <point x="689" y="527" type="curve"/>
      <point x="718" y="511"/>
      <point x="762" y="480"/>
      <point x="787" y="459" type="curve"/>
      <point x="835" y="521"/>
      <point x="896" y="618"/>
      <point x="930" y="689" type="curve"/>
      <point x="841" y="751" type="line"/>
    </contour>
  </outline>
</glyph>
<glyph name="ety135_cid38240_H" format="1">
  <advance width="1000"/>
  <outline>
    <contour>
      <point x="608" y="827" type="line"/>
      <point x="405" y="827" type="line"/>
      <point x="405" y="718" type="line"/>
      <point x="608" y="718" type="line"/>
    </contour>
    <contour>
      <point x="574" y="827" type="line"/>
      <point x="551" y="827" type="line"/>
      <point x="551" y="808" type="line"/>
      <point x="525" y="684"/>
      <point x="444" y="564"/>
      <point x="336" y="510" type="curve"/>
      <point x="363" y="485"/>
      <point x="399" y="433"/>
      <point x="415" y="401" type="curve"/>
      <point x="546" y="479"/>
      <point x="637" y="617"/>
      <point x="677" y="802" type="curve"/>
      <point x="595" y="831" type="line"/>
    </contour>
  </outline>
</glyph>
<glyph name="ety136_cid38315_EL" format="1">
  <advance width="1000"/>
  <outline>
    <contour>
      <point x="759" y="774" type="line"/>
      <point x="546" y="774" type="line"/>
      <point x="528" y="745" type="line"/>
      <point x="759" y="745" type="line"/>
    </contour>
    <contour>
      <point x="749" y="774" type="line"/>
      <point x="743" y="774" type="line"/>
      <point x="743" y="768" type="line"/>
      <point x="726" y="728"/>
      <point x="696" y="674"/>
      <point x="668" y="643" type="curve"/>
      <point x="675" y="640"/>
      <point x="686" y="634"/>
      <point x="692" y="629" type="curve"/>
      <point x="720" y="662"/>
      <point x="753" y="715"/>
      <point x="774" y="764" type="curve"/>
      <point x="755" y="776" type="line"/>
    </contour>
  </outline>
</glyph>
<glyph name="ety137_cid38578_EL" format="1">
  <advance width="1000"/>
  <outline>
    <contour>
      <point x="846" y="794" type="line"/>
      <point x="400" y="794" type="line"/>
      <point x="400" y="765" type="line"/>
      <point x="846" y="765" type="line"/>
    </contour>
    <contour>
      <point x="848" y="795" type="line"/>
      <point x="841" y="795" type="line"/>
      <point x="841" y="789" type="line"/>
      <point x="788" y="749"/>
      <point x="697" y="701"/>
      <point x="638" y="672" type="curve"/>
      <point x="644" y="669"/>
      <point x="654" y="660"/>
      <point x="659" y="654" type="curve"/>
      <point x="717" y="683"/>
      <point x="812" y="732"/>
      <point x="878" y="779" type="curve"/>
      <point x="855" y="798" type="line"/>
    </contour>
  </outline>
</glyph>
<glyph name="ety139_cid38989_H" format="1">
  <advance width="1000"/>
  <outline>
    <contour>
      <point x="831" y="820" type="line"/>
      <point x="466" y="824" type="line"/>
      <point x="465" y="700" type="line"/>
      <point x="830" y="696" type="line"/>
    </contour>
    <contour>
      <point x="813" y="821" type="line"/>
      <point x="786" y="821" type="line"/>
      <point x="786" y="804" type="line"/>
      <point x="741" y="655"/>
      <point x="608" y="565"/>
      <point x="421" y="533" type="curve"/>
      <point x="446" y="503"/>
      <point x="477" y="445"/>
      <point x="489" y="409" type="curve"/>
      <point x="708" y="462"/>
      <point x="859" y="573"/>
      <point x="925" y="794" type="curve"/>
      <point x="837" y="825" type="line"/>
    </contour>
  </outline>
</glyph>
<glyph name="ety140_cid39061_H" format="1">
  <advance width="1000"/>
  <outline>
    <contour>
      <point x="850" y="450" type="line"/>
      <point x="609" y="450" type="line"/>
      <point x="609" y="329" type="line"/>
      <point x="850" y="329" type="line"/>
    </contour>
    <contour>
      <point x="845" y="451" type="line"/>
      <point x="820" y="451" type="line"/>
      <point x="820" y="426" type="line"/>
      <point x="801" y="244"/>
      <point x="732" y="89"/>
      <point x="593" y="2" type="curve"/>
      <point x="620" y="-20"/>
      <point x="656" y="-59"/>
      <point x="675" y="-88" type="curve"/>
      <point x="836" y="16"/>
      <point x="918" y="199"/>
      <point x="947" y="431" type="curve"/>
      <point x="868" y="455" type="line"/>
    </contour>
  </outline>
</glyph>
<glyph name="ety141_cid39430_EL" format="1">
  <advance width="1000"/>
  <outline>
    <contour>
      <point x="923" y="318" type="line"/>
      <point x="636" y="318" type="line"/>
      <point x="636" y="288" type="line"/>
      <point x="923" y="288" type="line"/>
    </contour>
    <contour>
      <point x="913" y="318" type="line"/>
      <point x="907" y="318" type="line"/>
      <point x="907" y="311" type="line"/>
      <point x="862" y="128"/>
      <point x="732" y="6"/>
      <point x="601" y="-44" type="curve"/>
      <point x="608" y="-50"/>
      <point x="616" y="-61"/>
      <point x="620" y="-67" type="curve"/>
      <point x="756" y="-11"/>
      <point x="887" y="113"/>
      <point x="936" y="312" type="curve"/>
      <point x="918" y="320" type="line"/>
    </contour>
  </outline>
</glyph>
<glyph name="ety142_cid39470_EL" format="1">
  <advance width="1000"/>
  <outline>
    <contour>
      <point x="628" y="727" type="line"/>
      <point x="474" y="727" type="line"/>
      <point x="465" y="698" type="line"/>
      <point x="628" y="698" type="line"/>
    </contour>
    <contour>
      <point x="635" y="727" type="line"/>
      <point x="629" y="727" type="line"/>
      <point x="629" y="719" type="line"/>
      <point x="591" y="445"/>
      <point x="468" y="260"/>
      <point x="329" y="182" type="curve"/>
      <point x="336" y="177"/>
      <point x="345" y="166"/>
      <point x="350" y="158" type="curve"/>
      <point x="493" y="245"/>
      <point x="617" y="430"/>
      <point x="659" y="722" type="curve"/>
      <point x="641" y="729" type="line"/>
    </contour>
  </outline>
</glyph>
<glyph name="ety143_cid39783_H" format="1">
  <advance width="1000"/>
  <outline>
    <contour>
      <point x="850" y="744" type="line"/>
      <point x="608" y="744" type="line"/>
      <point x="550" y="616" type="line"/>
      <point x="850" y="616" type="line"/>
    </contour>
    <contour>
      <point x="830" y="745" type="line"/>
      <point x="801" y="745" type="line"/>
      <point x="801" y="718" type="line"/>
      <point x="784" y="669"/>
      <point x="739" y="583"/>
      <point x="698" y="527" type="curve"/>
      <point x="727" y="511"/>
      <point x="771" y="480"/>
      <point x="796" y="459" type="curve"/>
      <point x="844" y="521"/>
      <point x="905" y="618"/>
      <point x="939" y="689" type="curve"/>
      <point x="850" y="751" type="line"/>
    </contour>
  </outline>
</glyph>
<glyph name="ety144_cid40458_EL" format="1">
  <advance width="1000"/>
  <outline>
    <contour>
      <point x="840" y="764" type="line"/>
      <point x="833" y="764" type="line"/>
      <point x="833" y="757" type="line"/>
      <point x="738" y="608"/>
      <point x="498" y="510"/>
      <point x="302" y="474" type="curve"/>
      <point x="308" y="468"/>
      <point x="316" y="457"/>
      <point x="318" y="449" type="curve"/>
      <point x="519" y="490"/>
      <point x="761" y="589"/>
      <point x="865" y="753" type="curve"/>
      <point x="846" y="766" type="line"/>
    </contour>
    <contour>
      <point x="828" y="764" type="line"/>
      <point x="545" y="764" type="line"/>
      <point x="519" y="734" type="line"/>
      <point x="828" y="734" type="line"/>
    </contour>
  </outline>
</glyph>
<glyph name="ety145_cid40795_H" format="1">
  <advance width="1000"/>
  <outline>
    <contour>
      <point x="257" y="817" type="line"/>
      <point x="76" y="817" type="line"/>
      <point x="76" y="713" type="line"/>
      <point x="257" y="713" type="line"/>
    </contour>
    <contour>
      <point x="253" y="816" type="line"/>
      <point x="230" y="816" type="line"/>
      <point x="230" y="798" type="line"/>
      <point x="202" y="657"/>
      <point x="124" y="557"/>
      <point x="15" y="506" type="curve"/>
      <point x="37" y="487"/>
      <point x="73" y="439"/>
      <point x="87" y="412" type="curve"/>
      <point x="208" y="477"/>
      <point x="302" y="603"/>
      <point x="342" y="791" type="curve"/>
      <point x="273" y="819" type="line"/>
    </contour>
  </outline>
</glyph>
<glyph name="ety146_cid41155_H" format="1">
  <advance width="1000"/>
  <outline>
    <contour>
      <point x="639" y="824" type="line"/>
      <point x="472" y="824" type="line"/>
      <point x="472" y="721" type="line"/>
      <point x="639" y="721" type="line"/>
    </contour>
    <contour>
      <point x="628" y="825" type="line"/>
      <point x="604" y="825" type="line"/>
      <point x="604" y="809" type="line"/>
      <point x="582" y="678"/>
      <point x="519" y="591"/>
      <point x="421" y="548" type="curve"/>
      <point x="440" y="528"/>
      <point x="472" y="476"/>
      <point x="484" y="449" type="curve"/>
      <point x="601" y="505"/>
      <point x="683" y="621"/>
      <point x="715" y="805" type="curve"/>
      <point x="648" y="827" type="line"/>
    </contour>
  </outline>
</glyph>
<glyph name="ety147_cid41215_H" format="1">
  <advance width="1000"/>
  <outline>
    <contour>
      <point x="865" y="812" type="line"/>
      <point x="455" y="812" type="line"/>
      <point x="455" y="685" type="line"/>
      <point x="865" y="685" type="line"/>
    </contour>
    <contour>
      <point x="866" y="811" type="line"/>
      <point x="842" y="811" type="line"/>
      <point x="842" y="791" type="line"/>
      <point x="777" y="646"/>
      <point x="591" y="528"/>
      <point x="392" y="477" type="curve"/>
      <point x="418" y="450"/>
      <point x="451" y="396"/>
      <point x="466" y="363" type="curve"/>
      <point x="685" y="433"/>
      <point x="883" y="566"/>
      <point x="976" y="771" type="curve"/>
      <point x="888" y="816" type="line"/>
    </contour>
  </outline>
</glyph>
<glyph name="ety148_cid41595_EL" format="1">
  <advance width="1000"/>
  <outline>
    <contour>
      <point x="855" y="719" type="line"/>
      <point x="607" y="719" type="line"/>
      <point x="593" y="689" type="line"/>
      <point x="855" y="689" type="line"/>
    </contour>
    <contour>
      <point x="847" y="719" type="line"/>
      <point x="841" y="719" type="line"/>
      <point x="841" y="711" type="line"/>
      <point x="770" y="473"/>
      <point x="583" y="296"/>
      <point x="418" y="227" type="curve"/>
      <point x="424" y="220"/>
      <point x="431" y="209"/>
      <point x="435" y="201" type="curve"/>
      <point x="605" y="278"/>
      <point x="793" y="455"/>
      <point x="869" y="711" type="curve"/>
      <point x="852" y="720" type="line"/>
    </contour>
  </outline>
</glyph>
<glyph name="ety149_cid41825_H" format="1">
  <advance width="1000"/>
  <outline>
    <contour>
      <point x="854" y="744" type="line"/>
      <point x="612" y="744" type="line"/>
      <point x="554" y="616" type="line"/>
      <point x="854" y="616" type="line"/>
    </contour>
    <contour>
      <point x="834" y="745" type="line"/>
      <point x="805" y="745" type="line"/>
      <point x="805" y="718" type="line"/>
      <point x="788" y="669"/>
      <point x="743" y="583"/>
      <point x="702" y="527" type="curve"/>
      <point x="731" y="511"/>
      <point x="775" y="480"/>
      <point x="800" y="459" type="curve"/>
      <point x="848" y="521"/>
      <point x="909" y="618"/>
      <point x="943" y="689" type="curve"/>
      <point x="854" y="751" type="line"/>
    </contour>
  </outline>
</glyph>
<glyph name="ety150_cid41961_EL" format="1">
  <advance width="1000"/>
  <outline>
    <contour>
      <point x="866" y="255" type="line"/>
      <point x="578" y="255" type="line"/>
      <point x="564" y="226" type="line"/>
      <point x="866" y="226" type="line"/>
    </contour>
    <contour>
      <point x="855" y="255" type="line"/>
      <point x="848" y="255" type="line"/>
      <point x="848" y="248" type="line"/>
      <point x="774" y="91"/>
      <point x="577" y="-6"/>
      <point x="401" y="-43" type="curve"/>
      <point x="407" y="-49"/>
      <point x="415" y="-62"/>
      <point x="419" y="-69" type="curve"/>
      <point x="600" y="-26"/>
      <point x="800" y="73"/>
      <point x="881" y="245" type="curve"/>
      <point x="862" y="257" type="line"/>
    </contour>
  </outline>
</glyph>
<glyph name="ety151_cid43162_H" format="1">
  <advance width="1000"/>
  <outline>
    <contour>
      <point x="828" y="766" type="line"/>
      <point x="562" y="766" type="line"/>
      <point x="562" y="650" type="line"/>
      <point x="828" y="650" type="line"/>
    </contour>
    <contour>
      <point x="789" y="766" type="line"/>
      <point x="769" y="766" type="line"/>
      <point x="769" y="741" type="line"/>
      <point x="748" y="669"/>
      <point x="691" y="571"/>
      <point x="642" y="518" type="curve"/>
      <point x="671" y="501"/>
      <point x="719" y="465"/>
      <point x="743" y="444" type="curve"/>
      <point x="803" y="513"/>
      <point x="869" y="614"/>
      <point x="907" y="719" type="curve"/>
      <point x="812" y="773" type="line"/>
    </contour>
  </outline>
</glyph>
<glyph name="ety153_cid43557_EL" format="1">
  <advance width="1000"/>
  <outline>
    <contour>
      <point x="502" y="198" type="line"/>
      <point x="109" y="198" type="line"/>
      <point x="109" y="169" type="line"/>
      <point x="502" y="169" type="line"/>
    </contour>
    <contour>
      <point x="500" y="199" type="line"/>
      <point x="493" y="199" type="line"/>
      <point x="493" y="192" type="line"/>
      <point x="450" y="163"/>
      <point x="373" y="134"/>
      <point x="304" y="118" type="curve"/>
      <point x="311" y="114"/>
      <point x="319" y="106"/>
      <point x="324" y="99" type="curve"/>
      <point x="392" y="117"/>
      <point x="475" y="148"/>
      <point x="527" y="186" type="curve"/>
      <point x="506" y="201" type="line"/>
    </contour>
  </outline>
</glyph>
<glyph name="ety154_cid43603_EL" format="1">
  <advance width="1000"/>
  <outline>
    <contour>
      <point x="845" y="440" type="line"/>
      <point x="606" y="440" type="line"/>
      <point x="582" y="411" type="line"/>
      <point x="845" y="411" type="line"/>
    </contour>
    <contour>
      <point x="847" y="439" type="line"/>
      <point x="840" y="439" type="line"/>
      <point x="840" y="431" type="line"/>
      <point x="770" y="349"/>
      <point x="621" y="268"/>
      <point x="449" y="227" type="curve"/>
      <point x="456" y="221"/>
      <point x="464" y="212"/>
      <point x="468" y="205" type="curve"/>
      <point x="644" y="249"/>
      <point x="795" y="331"/>
      <point x="875" y="427" type="curve"/>
      <point x="854" y="441" type="line"/>
    </contour>
  </outline>
</glyph>
<glyph name="ety156_cid44419_EL" format="1">
  <advance width="1000"/>
  <outline>
    <contour>
      <point x="868" y="780" type="line"/>
      <point x="555" y="780" type="line"/>
      <point x="555" y="751" type="line"/>
      <point x="868" y="751" type="line"/>
    </contour>
    <contour>
      <point x="866" y="779" type="line"/>
      <point x="859" y="779" type="line"/>
      <point x="859" y="772" type="line"/>
      <point x="812" y="657"/>
      <point x="686" y="572"/>
      <point x="574" y="535" type="curve"/>
      <point x="581" y="529"/>
      <point x="589" y="519"/>
      <point x="593" y="512" type="curve"/>
      <point x="710" y="553"/>
      <point x="837" y="641"/>
      <point x="890" y="771" type="curve"/>
      <point x="871" y="781" type="line"/>
    </contour>
  </outline>
</glyph>
<glyph name="ety157_cid44468_H" format="1">
  <advance width="1000"/>
  <outline>
    <contour>
      <point x="860" y="744" type="line"/>
      <point x="618" y="744" type="line"/>
      <point x="560" y="616" type="line"/>
      <point x="860" y="616" type="line"/>
    </contour>
    <contour>
      <point x="840" y="745" type="line"/>
      <point x="811" y="745" type="line"/>
      <point x="811" y="718" type="line"/>
      <point x="794" y="669"/>
      <point x="749" y="583"/>
      <point x="708" y="527" type="curve"/>
      <point x="737" y="511"/>
      <point x="781" y="480"/>
      <point x="806" y="459" type="curve"/>
      <point x="854" y="521"/>
      <point x="915" y="618"/>
      <point x="949" y="689" type="curve"/>
      <point x="860" y="751" type="line"/>
    </contour>
  </outline>
</glyph>
<glyph name="ety158_cid45124_H" format="1">
  <advance width="1000"/>
  <outline>
    <contour>
      <point x="861" y="816" type="line"/>
      <point x="703" y="816" type="line"/>
      <point x="703" y="713" type="line"/>
      <point x="861" y="713" type="line"/>
    </contour>
    <contour>
      <point x="854" y="817" type="line"/>
      <point x="834" y="817" type="line"/>
      <point x="834" y="802" type="line"/>
      <point x="819" y="663"/>
      <point x="767" y="550"/>
      <point x="677" y="501" type="curve"/>
      <point x="700" y="479"/>
      <point x="728" y="437"/>
      <point x="741" y="410" type="curve"/>
      <point x="857" y="481"/>
      <point x="919" y="610"/>
      <point x="940" y="805" type="curve"/>
      <point x="874" y="819" type="line"/>
    </contour>
  </outline>
</glyph>
<glyph name="ety159_cid45499_EL" format="1">
  <advance width="1000"/>
  <outline>
    <contour>
      <point x="885" y="511" type="line"/>
      <point x="633" y="511" type="line"/>
      <point x="627" y="481" type="line"/>
      <point x="885" y="481" type="line"/>
    </contour>
    <contour>
      <point x="879" y="512" type="line"/>
      <point x="873" y="512" type="line"/>
      <point x="873" y="504" type="line"/>
      <point x="826" y="279"/>
      <point x="686" y="135"/>
      <point x="540" y="77" type="curve"/>
      <point x="547" y="71"/>
      <point x="555" y="60"/>
      <point x="559" y="53" type="curve"/>
      <point x="711" y="120"/>
      <point x="852" y="265"/>
      <point x="903" y="506" type="curve"/>
      <point x="885" y="514" type="line"/>
    </contour>
  </outline>
</glyph>
<glyph name="ety160_cid45579_EL" format="1">
  <advance width="1000"/>
  <outline>
    <contour>
      <point x="348" y="741" type="line"/>
      <point x="171" y="741" type="line"/>
      <point x="171" y="712" type="line"/>
      <point x="348" y="712" type="line"/>
    </contour>
    <contour>
      <point x="346" y="740" type="line"/>
      <point x="339" y="740" type="line"/>
      <point x="339" y="733" type="line"/>
      <point x="320" y="680"/>
      <point x="282" y="613"/>
      <point x="249" y="570" type="curve"/>
      <point x="256" y="566"/>
      <point x="266" y="558"/>
      <point x="271" y="552" type="curve"/>
      <point x="306" y="597"/>
      <point x="347" y="666"/>
      <point x="375" y="729" type="curve"/>
      <point x="352" y="742" type="line"/>
    </contour>
  </outline>
</glyph>
<glyph name="ety162_cid45655_EL" format="1">
  <advance width="1000"/>
  <outline>
    <contour>
      <point x="627" y="462" type="line"/>
      <point x="335" y="462" type="line"/>
      <point x="335" y="432" type="line"/>
      <point x="627" y="432" type="line"/>
    </contour>
    <contour>
      <point x="626" y="461" type="line"/>
      <point x="621" y="461" type="line"/>
      <point x="621" y="453" type="line"/>
      <point x="600" y="421"/>
      <point x="552" y="377"/>
      <point x="518" y="356" type="curve"/>
      <point x="524" y="352"/>
      <point x="533" y="344"/>
      <point x="539" y="338" type="curve"/>
      <point x="574" y="362"/>
      <point x="625" y="406"/>
      <point x="653" y="451" type="curve"/>
      <point x="632" y="463" type="line"/>
    </contour>
  </outline>
</glyph>
<glyph name="ety163_cid45778_EL" format="1">
  <advance width="1000"/>
  <outline>
    <contour>
      <point x="922" y="712" type="line"/>
      <point x="697" y="712" type="line"/>
      <point x="697" y="682" type="line"/>
      <point x="922" y="682" type="line"/>
    </contour>
    <contour>
      <point x="915" y="714" type="line"/>
      <point x="910" y="714" type="line"/>
      <point x="910" y="705" type="line"/>
      <point x="889" y="321"/>
      <point x="798" y="70"/>
      <point x="668" y="-39" type="curve"/>
      <point x="676" y="-45"/>
      <point x="686" y="-55"/>
      <point x="691" y="-63" type="curve"/>
      <point x="826" y="58"/>
      <point x="917" y="308"/>
      <point x="938" y="711" type="curve"/>
      <point x="920" y="716" type="line"/>
    </contour>
  </outline>
</glyph>
<glyph name="ety164_cid45780_EL" format="1">
  <advance width="1000"/>
  <outline>
    <contour>
      <point x="862" y="775" type="line"/>
      <point x="508" y="775" type="line"/>
      <point x="508" y="746" type="line"/>
      <point x="862" y="746" type="line"/>
    </contour>
    <contour>
      <point x="863" y="776" type="line"/>
      <point x="856" y="776" type="line"/>
      <point x="856" y="769" type="line"/>
      <point x="819" y="726"/>
      <point x="752" y="673"/>
      <point x="699" y="642" type="curve"/>
      <point x="706" y="638"/>
      <point x="715" y="630"/>
      <point x="720" y="624" type="curve"/>
      <point x="772" y="658"/>
      <point x="844" y="711"/>
      <point x="890" y="764" type="curve"/>
      <point x="868" y="778" type="line"/>
    </contour>
  </outline>
</glyph>
<glyph name="ety165_cid45807_EL" format="1">
  <advance width="1000"/>
  <outline>
    <contour>
      <point x="322" y="741" type="line"/>
      <point x="162" y="741" type="line"/>
      <point x="162" y="712" type="line"/>
      <point x="322" y="712" type="line"/>
    </contour>
    <contour>
      <point x="304" y="741" type="line"/>
      <point x="297" y="741" type="line"/>
      <point x="297" y="733" type="line"/>
      <point x="283" y="682"/>
      <point x="257" y="614"/>
      <point x="232" y="571" type="curve"/>
      <point x="239" y="567"/>
      <point x="249" y="559"/>
      <point x="254" y="553" type="curve"/>
      <point x="280" y="599"/>
      <point x="312" y="668"/>
      <point x="332" y="730" type="curve"/>
      <point x="310" y="743" type="line"/>
    </contour>
  </outline>
</glyph>
<glyph name="ety167_cid45987_H" format="1">
  <advance width="1000"/>
  <outline>
    <contour>
      <point x="239" y="763" type="line"/>
      <point x="148" y="763" type="line"/>
      <point x="148" y="667" type="line"/>
      <point x="239" y="667" type="line"/>
    </contour>
    <contour>
      <point x="234" y="764" type="line"/>
      <point x="211" y="764" type="line"/>
      <point x="211" y="746" type="line"/>
      <point x="203" y="703"/>
      <point x="184" y="636"/>
      <point x="167" y="594" type="curve"/>
      <point x="184" y="581"/>
      <point x="213" y="552"/>
      <point x="227" y="533" type="curve"/>
      <point x="257" y="584"/>
      <point x="291" y="661"/>
      <point x="315" y="727" type="curve"/>
      <point x="253" y="770" type="line"/>
    </contour>
  </outline>
</glyph>
<glyph name="ety168_cid46064_H" format="1">
  <advance width="1000"/>
  <outline>
    <contour>
      <point x="623" y="538" type="line"/>
      <point x="343" y="538" type="line"/>
      <point x="261" y="433" type="line"/>
      <point x="623" y="433" type="line"/>
    </contour>
    <contour>
      <point x="625" y="539" type="line"/>
      <point x="593" y="539" type="line"/>
      <point x="593" y="516" type="line"/>
      <point x="565" y="479"/>
      <point x="500" y="422"/>
      <point x="445" y="390" type="curve"/>
      <point x="464" y="372"/>
      <point x="498" y="335"/>
      <point x="513" y="312" type="curve"/>
      <point x="589" y="355"/>
      <point x="672" y="420"/>
      <point x="733" y="479" type="curve"/>
      <point x="652" y="546" type="line"/>
    </contour>
  </outline>
</glyph>
<glyph name="ety169_cid46089_EL" format="1">
  <advance width="1000"/>
  <outline>
    <contour>
      <point x="394" y="737" type="line"/>
      <point x="190" y="737" type="line"/>
      <point x="190" y="708" type="line"/>
      <point x="394" y="708" type="line"/>
    </contour>
    <contour>
      <point x="375" y="737" type="line"/>
      <point x="368" y="737" type="line"/>
      <point x="368" y="730" type="line"/>
      <point x="348" y="677"/>
      <point x="311" y="610"/>
      <point x="278" y="567" type="curve"/>
      <point x="284" y="563"/>
      <point x="294" y="555"/>
      <point x="299" y="549" type="curve"/>
      <point x="334" y="594"/>
      <point x="376" y="663"/>
      <point x="403" y="726" type="curve"/>
      <point x="380" y="739" type="line"/>
    </contour>
  </outline>
</glyph>
<glyph name="ety170_cid46095_EL" format="1">
  <advance width="1000"/>
  <outline>
    <contour>
      <point x="363" y="736" type="line"/>
      <point x="185" y="736" type="line"/>
      <point x="185" y="707" type="line"/>
      <point x="363" y="707" type="line"/>
    </contour>
    <contour>
      <point x="359" y="737" type="line"/>
      <point x="352" y="737" type="line"/>
      <point x="352" y="730" type="line"/>
      <point x="331" y="677"/>
      <point x="292" y="610"/>
      <point x="258" y="567" type="curve"/>
      <point x="265" y="563"/>
      <point x="274" y="555"/>
      <point x="280" y="549" type="curve"/>
      <point x="315" y="594"/>
      <point x="359" y="663"/>
      <point x="386" y="726" type="curve"/>
      <point x="365" y="739" type="line"/>
    </contour>
  </outline>
</glyph>
<glyph name="ety171_cid46096_EL" format="1">
  <advance width="1000"/>
  <outline>
    <contour>
      <point x="819" y="315" type="line"/>
      <point x="580" y="315" type="line"/>
      <point x="560" y="285" type="line"/>
      <point x="819" y="285" type="line"/>
    </contour>
    <contour>
      <point x="819" y="316" type="line"/>
      <point x="812" y="316" type="line"/>
      <point x="812" y="308" type="line"/>
      <point x="747" y="121"/>
      <point x="585" y="10"/>
      <point x="406" y="-45" type="curve"/>
      <point x="413" y="-51"/>
      <point x="422" y="-63"/>
      <point x="427" y="-70" type="curve"/>
      <point x="609" y="-11"/>
      <point x="773" y="103"/>
      <point x="845" y="307" type="curve"/>
      <point x="826" y="318" type="line"/>
    </contour>
  </outline>
</glyph>
<glyph name="ety172_cid46119_EL" format="1">
  <advance width="1000"/>
  <outline>
    <contour>
      <point x="350" y="736" type="line"/>
      <point x="173" y="736" type="line"/>
      <point x="173" y="707" type="line"/>
      <point x="350" y="707" type="line"/>
    </contour>
    <contour>
      <point x="329" y="737" type="line"/>
      <point x="322" y="737" type="line"/>
      <point x="322" y="730" type="line"/>
      <point x="303" y="678"/>
      <point x="268" y="610"/>
      <point x="235" y="567" type="curve"/>
      <point x="243" y="563"/>
      <point x="252" y="555"/>
      <point x="257" y="549" type="curve"/>
      <point x="290" y="594"/>
      <point x="330" y="664"/>
      <point x="356" y="726" type="curve"/>
      <point x="334" y="739" type="line"/>
    </contour>
  </outline>
</glyph>
<glyph name="ety173_cid46162_EL" format="1">
  <advance width="1000"/>
  <outline>
    <contour>
      <point x="375" y="708" type="line"/>
      <point x="70" y="708" type="line"/>
      <point x="70" y="678" type="line"/>
      <point x="375" y="678" type="line"/>
    </contour>
    <contour>
      <point x="351" y="708" type="line"/>
      <point x="345" y="708" type="line"/>
      <point x="345" y="699" type="line"/>
      <point x="307" y="376"/>
      <point x="182" y="137"/>
      <point x="41" y="36" type="curve"/>
      <point x="50" y="31"/>
      <point x="60" y="19"/>
      <point x="65" y="11" type="curve"/>
      <point x="210" y="123"/>
      <point x="334" y="360"/>
      <point x="376" y="704" type="curve"/>
      <point x="357" y="710" type="line"/>
    </contour>
  </outline>
</glyph>
<glyph name="ety174_cid46738_H" format="1">
  <advance width="1000"/>
  <outline>
    <contour>
      <point x="399" y="759" type="line"/>
      <point x="181" y="759" type="line"/>
      <point x="129" y="631" type="line"/>
      <point x="399" y="631" type="line"/>
    </contour>
    <contour>
      <point x="381" y="760" type="line"/>
      <point x="355" y="760" type="line"/>
      <point x="355" y="733" type="line"/>
      <point x="340" y="684"/>
      <point x="299" y="598"/>
      <point x="263" y="542" type="curve"/>
      <point x="289" y="526"/>
      <point x="328" y="495"/>
      <point x="351" y="474" type="curve"/>
      <point x="394" y="536"/>
      <point x="449" y="633"/>
      <point x="479" y="704" type="curve"/>
      <point x="399" y="766" type="line"/>
    </contour>
  </outline>
</glyph>
<glyph name="ety175_cid46739_H" format="1">
  <advance width="1000"/>
  <outline>
    <contour>
      <point x="383" y="401" type="line"/>
      <point x="67" y="401" type="line"/>
      <point x="67" y="298" type="line"/>
      <point x="383" y="298" type="line"/>
    </contour>
    <contour>
      <point x="380" y="400" type="line"/>
      <point x="349" y="400" type="line"/>
      <point x="349" y="378" type="line"/>
      <point x="321" y="343"/>
      <point x="256" y="290"/>
      <point x="202" y="259" type="curve"/>
      <point x="220" y="242"/>
      <point x="252" y="207"/>
      <point x="266" y="185" type="curve"/>
      <point x="341" y="226"/>
      <point x="422" y="287"/>
      <point x="482" y="343" type="curve"/>
      <point x="405" y="407" type="line"/>
    </contour>
  </outline>
</glyph>
<glyph name="ety176_cid46941_EL" format="1">
  <advance width="1000"/>
  <outline>
    <contour>
      <point x="390" y="317" type="line"/>
      <point x="182" y="317" type="line"/>
      <point x="168" y="287" type="line"/>
      <point x="390" y="287" type="line"/>
    </contour>
    <contour>
      <point x="387" y="318" type="line"/>
      <point x="380" y="318" type="line"/>
      <point x="380" y="310" type="line"/>
      <point x="329" y="135"/>
      <point x="201" y="26"/>
      <point x="55" y="-30" type="curve"/>
      <point x="62" y="-36"/>
      <point x="71" y="-47"/>
      <point x="76" y="-55" type="curve"/>
      <point x="225" y="6"/>
      <point x="356" y="119"/>
      <point x="413" y="310" type="curve"/>
      <point x="394" y="320" type="line"/>
    </contour>
  </outline>
</glyph>
<glyph name="ety177_cid47552_EL" format="1">
  <advance width="1000"/>
  <outline>
    <contour>
      <point x="436" y="328" type="line"/>
      <point x="281" y="328" type="line"/>
      <point x="281" y="299" type="line"/>
      <point x="436" y="299" type="line"/>
    </contour>
    <contour>
      <point x="421" y="328" type="line"/>
      <point x="415" y="328" type="line"/>
      <point x="415" y="319" type="line"/>
      <point x="387" y="169"/>
      <point x="298" y="22"/>
      <point x="129" y="-50" type="curve"/>
      <point x="136" y="-57"/>
      <point x="145" y="-65"/>
      <point x="150" y="-72" type="curve"/>
      <point x="327" y="4"/>
      <point x="417" y="153"/>
      <point x="447" y="324" type="curve"/>
      <point x="427" y="330" type="line"/>
    </contour>
  </outline>
</glyph>
<glyph name="ety178_cid47555_H" format="1">
  <advance width="1000"/>
  <outline>
    <contour>
      <point x="256" y="592" type="line"/>
      <point x="147" y="592" type="line"/>
      <point x="108" y="466" type="line"/>
      <point x="256" y="466" type="line"/>
    </contour>
    <contour>
      <point x="228" y="592" type="line"/>
      <point x="212" y="592" type="line"/>
      <point x="212" y="574" type="line"/>
      <point x="201" y="303"/>
      <point x="143" y="86"/>
      <point x="37" y="-6" type="curve"/>
      <point x="58" y="-24"/>
      <point x="87" y="-63"/>
      <point x="100" y="-86" type="curve"/>
      <point x="226" y="34"/>
      <point x="284" y="259"/>
      <point x="298" y="584" type="curve"/>
      <point x="244" y="594" type="line"/>
    </contour>
  </outline>
</glyph>
<glyph name="ety179_cid47579_EL" format="1">
  <advance width="1000"/>
  <outline>
    <contour>
      <point x="373" y="737" type="line"/>
      <point x="190" y="737" type="line"/>
      <point x="190" y="708" type="line"/>
      <point x="373" y="708" type="line"/>
    </contour>
    <contour>
      <point x="363" y="737" type="line"/>
      <point x="356" y="737" type="line"/>
      <point x="356" y="730" type="line"/>
      <point x="336" y="677"/>
      <point x="299" y="610"/>
      <point x="266" y="567" type="curve"/>
      <point x="273" y="563"/>
      <point x="282" y="555"/>
      <point x="287" y="549" type="curve"/>
      <point x="323" y="594"/>
      <point x="364" y="663"/>
      <point x="391" y="726" type="curve"/>
      <point x="369" y="739" type="line"/>
    </contour>
  </outline>
</glyph>
<glyph name="ety181_cid59667_H" format="1">
  <advance width="1000"/>
  <outline>
    <contour>
      <point x="884" y="548" type="line"/>
      <point x="802" y="548" type="line"/>
      <point x="765" y="425" type="line"/>
      <point x="884" y="425" type="line"/>
    </contour>
    <contour>
      <point x="857" y="549" type="line"/>
      <point x="833" y="549" type="line"/>
      <point x="833" y="524" type="line"/>
      <point x="810" y="277"/>
      <point x="735" y="101"/>
      <point x="606" y="8" type="curve"/>
      <point x="634" y="-11"/>
      <point x="680" y="-60"/>
      <point x="699" y="-89" type="curve"/>
      <point x="837" y="18"/>
      <point x="926" y="229"/>
      <point x="958" y="530" type="curve"/>
      <point x="879" y="552" type="line"/>
    </contour>
  </outline>
</glyph>
<glyph name="ety182_cid59702_H" format="1">
  <advance width="1000"/>
  <outline>
    <contour>
      <point x="564" y="691" type="line"/>
      <point x="339" y="691" type="line"/>
      <point x="339" y="561" type="line"/>
      <point x="564" y="561" type="line"/>
    </contour>
    <contour>
      <point x="532" y="691" type="line"/>
      <point x="510" y="691" type="line"/>
      <point x="510" y="664" type="line"/>
      <point x="476" y="528"/>
      <point x="393" y="370"/>
      <point x="307" y="290" type="curve"/>
      <point x="322" y="263"/>
      <point x="349" y="184"/>
      <point x="358" y="144" type="curve"/>
      <point x="456" y="251"/>
      <point x="558" y="447"/>
      <point x="611" y="642" type="curve"/>
      <point x="551" y="697" type="line"/>
    </contour>
  </outline>
</glyph>
<glyph name="ety183_cid60107_EL" format="1">
  <advance width="1000"/>
  <outline>
    <contour>
      <point x="890" y="784" type="line"/>
      <point x="594" y="784" type="line"/>
      <point x="579" y="755" type="line"/>
      <point x="890" y="755" type="line"/>
    </contour>
    <contour>
      <point x="881" y="784" type="line"/>
      <point x="874" y="784" type="line"/>
      <point x="874" y="777" type="line"/>
      <point x="796" y="689"/>
      <point x="600" y="632"/>
      <point x="443" y="613" type="curve"/>
      <point x="449" y="606"/>
      <point x="457" y="595"/>
      <point x="460" y="588" type="curve"/>
      <point x="620" y="613"/>
      <point x="819" y="670"/>
      <point x="906" y="773" type="curve"/>
      <point x="887" y="786" type="line"/>
    </contour>
  </outline>
</glyph>
<glyph name="ety184_cid60140_H" format="1">
  <advance width="1000"/>
  <outline>
    <contour>
      <point x="883" y="541" type="line"/>
      <point x="770" y="541" type="line"/>
      <point x="741" y="417" type="line"/>
      <point x="883" y="417" type="line"/>
    </contour>
    <contour>
      <point x="876" y="542" type="line"/>
      <point x="853" y="542" type="line"/>
      <point x="853" y="518" type="line"/>
      <point x="829" y="265"/>
      <point x="752" y="91"/>
      <point x="618" y="1" type="curve"/>
      <point x="644" y="-18"/>
      <point x="688" y="-66"/>
      <point x="706" y="-94" type="curve"/>
      <point x="849" y="10"/>
      <point x="942" y="219"/>
      <point x="974" y="524" type="curve"/>
      <point x="898" y="545" type="line"/>
    </contour>
  </outline>
</glyph>
<glyph name="ety185_cid60331_EL" format="1">
  <advance width="1000"/>
  <outline>
    <contour>
      <point x="817" y="627" type="line"/>
      <point x="468" y="627" type="line"/>
      <point x="468" y="598" type="line"/>
      <point x="817" y="598" type="line"/>
    </contour>
    <contour>
      <point x="805" y="627" type="line"/>
      <point x="799" y="627" type="line"/>
      <point x="799" y="619" type="line"/>
      <point x="740" y="385"/>
      <point x="585" y="195"/>
      <point x="443" y="106" type="curve"/>
      <point x="450" y="101"/>
      <point x="459" y="91"/>
      <point x="464" y="84" type="curve"/>
      <point x="611" y="181"/>
      <point x="766" y="370"/>
      <point x="830" y="621" type="curve"/>
      <point x="811" y="629" type="line"/>
    </contour>
  </outline>
</glyph>
<glyph name="ety187_cid61163_H" format="1">
  <advance width="1000"/>
  <outline>
    <contour>
      <point x="584" y="815" type="line"/>
      <point x="367" y="815" type="line"/>
      <point x="367" y="706" type="line"/>
      <point x="584" y="706" type="line"/>
    </contour>
    <contour>
      <point x="581" y="814" type="line"/>
      <point x="560" y="814" type="line"/>
      <point x="560" y="799" type="line"/>
      <point x="532" y="682"/>
      <point x="448" y="590"/>
      <point x="334" y="551" type="curve"/>
      <point x="357" y="528"/>
      <point x="386" y="483"/>
      <point x="399" y="455" type="curve"/>
      <point x="538" y="513"/>
      <point x="634" y="622"/>
      <point x="674" y="794" type="curve"/>
      <point x="602" y="817" type="line"/>
    </contour>
  </outline>
</glyph>
<glyph name="ety188_cid61262_EL" format="1">
  <advance width="1000"/>
  <outline>
    <contour>
      <point x="861" y="567" type="line"/>
      <point x="657" y="567" type="line"/>
      <point x="657" y="537" type="line"/>
      <point x="861" y="537" type="line"/>
    </contour>
    <contour>
      <point x="870" y="567" type="line"/>
      <point x="864" y="567" type="line"/>
      <point x="864" y="560" type="line"/>
      <point x="840" y="523"/>
      <point x="797" y="477"/>
      <point x="759" y="449" type="curve"/>
      <point x="766" y="445"/>
      <point x="773" y="437"/>
      <point x="779" y="431" type="curve"/>
      <point x="819" y="462"/>
      <point x="867" y="509"/>
      <point x="898" y="555" type="curve"/>
      <point x="876" y="569" type="line"/>
    </contour>
  </outline>
</glyph>
<glyph name="ety189_cid61275_EL" format="1">
  <advance width="1000"/>
  <outline>
    <contour>
      <point x="389" y="582" type="line"/>
      <point x="182" y="582" type="line"/>
      <point x="182" y="553" type="line"/>
      <point x="389" y="553" type="line"/>
    </contour>
    <contour>
      <point x="379" y="582" type="line"/>
      <point x="374" y="582" type="line"/>
      <point x="374" y="575" type="line"/>
      <point x="342" y="435"/>
      <point x="245" y="350"/>
      <point x="142" y="314" type="curve"/>
      <point x="149" y="308"/>
      <point x="157" y="297"/>
      <point x="161" y="290" type="curve"/>
      <point x="270" y="332"/>
      <point x="368" y="422"/>
      <point x="403" y="577" type="curve"/>
      <point x="385" y="583" type="line"/>
    </contour>
  </outline>
</glyph>
<glyph name="ety190_cid61595_EL" format="1">
  <advance width="1000"/>
  <outline>
    <contour>
      <point x="476" y="293" type="line"/>
      <point x="229" y="293" type="line"/>
      <point x="214" y="264" type="line"/>
      <point x="476" y="264" type="line"/>
    </contour>
    <contour>
      <point x="458" y="293" type="line"/>
      <point x="450" y="293" type="line"/>
      <point x="450" y="286" type="line"/>
      <point x="388" y="100"/>
      <point x="231" y="3"/>
      <point x="49" y="-43" type="curve"/>
      <point x="55" y="-49"/>
      <point x="65" y="-61"/>
      <point x="69" y="-68" type="curve"/>
      <point x="255" y="-17"/>
      <point x="415" y="82"/>
      <point x="483" y="284" type="curve"/>
      <point x="465" y="295" type="line"/>
    </contour>
  </outline>
</glyph>
<glyph name="ety191_cid62621_EL" format="1">
  <advance width="1000"/>
  <outline>
    <contour>
      <point x="915" y="474" type="line"/>
      <point x="522" y="474" type="line"/>
      <point x="513" y="445" type="line"/>
      <point x="915" y="445" type="line"/>
    </contour>
    <contour>
      <point x="902" y="474" type="line"/>
      <point x="895" y="474" type="line"/>
      <point x="895" y="467" type="line"/>
      <point x="832" y="198"/>
      <point x="663" y="39"/>
      <point x="465" y="-40" type="curve"/>
      <point x="472" y="-45"/>
      <point x="481" y="-57"/>
      <point x="485" y="-65" type="curve"/>
      <point x="686" y="20"/>
      <point x="859" y="181"/>
      <point x="927" y="467" type="curve"/>
      <point x="909" y="476" type="line"/>
    </contour>
  </outline>
</glyph>
